<?xml version="1.0" encoding="UTF-8"?>
<!DOCTYPE svg PUBLIC "-//W3C//DTD SVG 1.1//EN" "http://www.w3.org/Graphics/SVG/1.1/DTD/svg11.dtd">
<svg xmlns="http://www.w3.org/2000/svg" version="1.1" viewBox="1.5 -0.5 972 147" width="660px" height="147px" style="shape-rendering:geometricPrecision; text-rendering:geometricPrecision; image-rendering:optimizeQuality; fill-rule:evenodd; clip-rule:evenodd" xmlns:xlink="http://www.w3.org/1999/xlink">
<g><path style="opacity:1" fill="#fdfcfd" d="M 1.5,-0.5 C 220.167,-0.5 438.833,-0.5 657.5,-0.5C 657.5,48.5 657.5,97.5 657.5,146.5C 438.833,146.5 220.167,146.5 1.5,146.5C 1.3347,142.818 1.50137,139.152 2,135.5C 3.33333,136.833 4.66667,138.167 6,139.5C 6.27842,138.584 6.77842,137.918 7.5,137.5C 7.28099,138.675 7.61432,139.675 8.5,140.5C 14.3355,143.126 20.1688,143.126 26,140.5C 32.3523,142.824 38.8523,143.157 45.5,141.5C 57.4416,144.438 69.2749,144.105 81,140.5C 83.1937,138.031 86.0271,136.865 89.5,137C 104.348,129.198 113.848,117.031 118,100.5C 120.019,93.6502 120.852,86.8168 120.5,80C 122.833,78.3333 125.167,76.6667 127.5,75C 128.833,74.3333 130.167,74.3333 131.5,75C 134.874,78.4435 136.707,82.6101 137,87.5C 137.333,86.1667 137.667,84.8333 138,83.5C 138.232,84.7375 138.732,85.7375 139.5,86.5C 139.5,87.8333 139.5,89.1667 139.5,90.5C 139.649,91.552 139.483,92.552 139,93.5C 138.667,92.1667 138.333,90.8333 138,89.5C 139.184,109.71 148.017,125.543 164.5,137C 181.614,145.234 198.947,145.567 216.5,138C 226.76,131.401 234.594,122.568 240,111.5C 242.821,100.89 245.321,90.2233 247.5,79.5C 249.316,78.1851 250.983,76.6851 252.5,75C 253.833,74.3333 255.167,74.3333 256.5,75C 260.091,79.2287 262.757,83.8954 264.5,89C 264.379,105.573 270.379,119.906 282.5,132C 298.551,143.472 316.218,146.472 335.5,141C 343.201,137.294 349.701,132.127 355,125.5C 359.157,118.005 360.491,110.005 359,101.5C 357.427,96.3828 353.927,94.0495 348.5,94.5C 344.584,94.3422 341.918,96.0089 340.5,99.5C 344.577,119.598 336.244,128.431 315.5,126C 313.004,124.92 310.67,123.586 308.5,122C 305.913,119.01 304.413,115.843 304,112.5C 303.333,102.5 303.333,92.5 304,82.5C 305.171,80.4105 306.504,78.4105 308,76.5C 308.333,76.8333 308.667,77.1667 309,77.5C 310.251,74.6193 312.417,72.786 315.5,72C 304.56,67.9571 300.56,60.1238 303.5,48.5C 301.452,38.4967 304.119,30.1634 311.5,23.5C 322.823,19.1077 331.323,22.1077 337,32.5C 337.232,31.2625 337.732,30.2625 338.5,29.5C 338.66,31.1992 338.494,32.8659 338,34.5C 337.667,34.1667 337.333,33.8333 337,33.5C 334.36,38.9011 330.194,40.5678 324.5,38.5C 323.391,46.3791 326.724,50.7124 334.5,51.5C 333.653,54.1595 333.153,56.8262 333,59.5C 340.088,61.0533 346.255,59.2199 351.5,54C 355.377,53.7435 359.043,52.7435 362.5,51C 364.314,50.0795 365.314,48.5795 365.5,46.5C 364.697,44.0047 363.197,42.0047 361,40.5C 358.02,22.1889 347.52,11.0222 329.5,7C 289.161,4.32854 266.661,23.1619 262,63.5C 257.325,72.1962 252.325,72.5295 247,64.5C 245.396,51.0249 241.396,38.3582 235,26.5C 215.422,5.64536 192.255,0.81203 165.5,12C 163.208,13.2899 161.208,14.9565 159.5,17C 160.056,17.3826 160.389,17.8826 160.5,18.5C 160.5,19.1667 160.167,19.5 159.5,19.5C 158.577,18.6971 157.577,18.5304 156.5,19C 144.524,30.5481 137.69,44.7148 136,61.5C 134.343,69.5411 130.177,71.3745 123.5,67C 121.332,63.4942 120.165,59.6609 120,55.5C 119.23,56.5981 118.397,56.5981 117.5,55.5C 117.5,54.1667 117.5,52.8333 117.5,51.5C 118.341,50.9907 118.841,51.6573 119,53.5C 116.962,30.7847 105.129,15.6181 83.5,8C 70.4375,5.88243 57.4375,6.0491 44.5,8.5C 38.389,6.09316 32.2224,6.09316 26,8.5C 20.0425,5.80521 14.2091,5.97188 8.5,9C 7.40191,9.76971 7.40191,10.603 8.5,11.5C 4.75169,9.88876 2.75169,11.2221 2.5,15.5C 1.51192,10.3595 1.17859,5.02621 1.5,-0.5 Z"/></g>
<g><path style="opacity:1" fill="#e7e6e9" d="M 657.5,-0.5 C 658.167,-0.5 658.833,-0.5 659.5,-0.5C 659.5,48.5 659.5,97.5 659.5,146.5C 658.833,146.5 658.167,146.5 657.5,146.5C 657.5,97.5 657.5,48.5 657.5,-0.5 Z"/></g>
<g><path style="opacity:1" fill="#e1d6e8" d="M 463.5,101.5 C 458.181,92.1987 452.847,82.8654 447.5,73.5C 444.423,66.3478 441.09,59.3478 437.5,52.5C 441.262,49.0711 444.262,45.0711 446.5,40.5C 448.785,38.8818 450.785,36.8818 452.5,34.5C 454.6,32.502 456.6,30.3353 458.5,28C 462.11,26.056 465.443,23.7226 468.5,21C 472.73,19.7101 477.064,19.2101 481.5,19.5C 481.675,17.3792 481.341,15.3792 480.5,13.5C 480.027,12.0937 479.027,11.427 477.5,11.5C 473.756,8.85754 469.923,8.85754 466,11.5C 461.892,8.88842 457.726,8.88842 453.5,11.5C 448.393,8.60514 443.56,8.93848 439,12.5C 437.442,14.7689 437.276,17.1022 438.5,19.5C 441.421,18.5934 444.421,18.2601 447.5,18.5C 447.5,18.8333 447.5,19.1667 447.5,19.5C 447.923,20.2646 448.257,21.0979 448.5,22C 437.017,37.64 424.683,52.4734 411.5,66.5C 411.5,64.8333 411.5,63.1667 411.5,61.5C 412.222,61.0825 412.722,60.4158 413,59.5C 413.167,53.8333 413.333,48.1667 413.5,42.5C 413.496,36.4585 412.829,30.7918 411.5,25.5C 412.53,22.3223 414.53,19.989 417.5,18.5C 417.833,18.5 418.167,18.5 418.5,18.5C 420.806,18.9926 423.139,19.3259 425.5,19.5C 425.741,17.1016 425.074,15.1016 423.5,13.5C 418.088,9.01643 412.088,8.34976 405.5,11.5C 399.703,8.94963 393.87,8.94963 388,11.5C 380.577,8.06259 373.91,9.06259 368,14.5C 367.202,16.2588 367.369,17.9255 368.5,19.5C 369.736,18.7542 371.07,18.4208 372.5,18.5C 376.548,18.4411 379.715,20.1078 382,23.5C 382.667,37.1667 382.667,50.8333 382,64.5C 380.488,67.8566 377.988,69.8566 374.5,70.5C 374.281,71.675 374.614,72.675 375.5,73.5C 377.937,74.8034 380.104,76.4701 382,78.5C 382.667,94.5 382.667,110.5 382,126.5C 380.786,128.049 379.286,129.215 377.5,130C 374.183,130.498 370.85,130.665 367.5,130.5C 367.279,127.903 366.779,127.903 366,130.5C 365.316,129.216 365.483,128.049 366.5,127C 370.121,127.405 373.787,127.405 377.5,127C 379.066,125.316 380.066,123.316 380.5,121C 379.858,107.187 379.192,93.3534 378.5,79.5C 375.122,77.1046 371.789,74.7713 368.5,72.5C 370.428,70.4118 372.761,68.9118 375.5,68C 377.049,66.786 378.215,65.286 379,63.5C 379.219,51.9778 379.719,40.4778 380.5,29C 378.896,21.4229 374.729,19.5896 368,23.5C 363.773,19.8952 363.44,15.8952 367,11.5C 368.579,9.95884 370.413,8.79217 372.5,8C 377.695,7.29703 382.861,7.46369 388,8.5C 394,5.83333 400,5.83333 406,8.5C 413.889,5.06189 420.723,6.39522 426.5,12.5C 427.757,15.8231 427.757,19.1565 426.5,22.5C 425.833,22.8333 425.167,23.1667 424.5,23.5C 421.297,20.8783 418.13,20.8783 415,23.5C 414.333,35.1667 414.333,46.8333 415,58.5C 417.549,53.9194 420.716,49.7527 424.5,46C 424.167,45.6667 423.833,45.3333 423.5,45C 425.519,44.5503 427.352,43.717 429,42.5C 434.866,35.58 440.032,28.9133 444.5,22.5C 441.566,21.306 438.732,21.306 436,22.5C 432.765,13.635 435.765,8.30169 445,6.5C 447.706,7.00995 450.373,7.67661 453,8.5C 455.136,7.73229 457.303,7.06562 459.5,6.5C 463.5,7.83333 467.5,7.83333 471.5,6.5C 482.511,7.13684 486.178,12.4702 482.5,22.5C 479.003,22.5276 475.336,22.6943 471.5,23C 462.421,27.2451 455.421,33.7451 450.5,42.5C 449.675,43.3857 448.675,43.719 447.5,43.5C 446.072,47.4985 443.739,50.9985 440.5,54C 449.079,68.8322 457.079,83.8322 464.5,99C 463.748,99.6708 463.414,100.504 463.5,101.5 Z"/></g>
<g><path style="opacity:1" fill="#3a3369" d="M 239.5,100.5 C 239.641,92.4462 240.308,84.4462 241.5,76.5C 242.552,76.6495 243.552,76.4828 244.5,76C 244.374,74.0257 244.208,71.859 244,69.5C 242.644,68.6198 241.144,68.2865 239.5,68.5C 239.786,66.7231 240.453,65.0564 241.5,63.5C 239.735,58.3371 239.068,53.0037 239.5,47.5C 238.5,47.5 237.5,47.5 236.5,47.5C 235.955,44.1869 235.455,40.8536 235,37.5C 233.667,36.8333 232.333,36.1667 231,35.5C 228.92,47.2632 227.253,47.2632 226,35.5C 225.355,34.354 224.522,33.354 223.5,32.5C 225.676,30.8226 227.676,28.9893 229.5,27C 228.051,25.883 226.384,25.2163 224.5,25C 223.663,23.9887 223.33,22.8221 223.5,21.5C 218.44,22.3316 215.773,20.3316 215.5,15.5C 207.325,14.1245 199.158,12.7912 191,11.5C 185.779,12.2157 180.612,13.2157 175.5,14.5C 182.878,16.5123 190.878,17.679 199.5,18C 201.754,18.6237 203.421,19.957 204.5,22C 205.448,22.4828 206.448,22.6495 207.5,22.5C 207.5,24.8333 207.5,27.1667 207.5,29.5C 198.664,17.958 188.497,16.6247 177,25.5C 176,27.5 175,29.5 174,31.5C 173.333,42.1667 173.333,52.8333 174,63.5C 175.586,66.9191 177.752,69.9191 180.5,72.5C 179.025,74.0712 177.358,75.4045 175.5,76.5C 175.5,75.5 175.5,74.5 175.5,73.5C 175.392,70.6181 174.226,68.2847 172,66.5C 171.715,53.1497 171.215,39.8164 170.5,26.5C 172.167,26.5 173.833,26.5 175.5,26.5C 175.238,25.0222 175.571,23.6888 176.5,22.5C 178.585,21.4586 180.252,19.9586 181.5,18C 178.669,19.2253 176.336,18.5586 174.5,16C 172.19,15.5034 169.857,15.3367 167.5,15.5C 167.579,16.9305 167.246,18.2638 166.5,19.5C 164.237,20.65 161.904,21.65 159.5,22.5C 156.368,25.8119 153.035,28.8119 149.5,31.5C 152.457,27.2079 155.79,23.2079 159.5,19.5C 160.167,19.5 160.5,19.1667 160.5,18.5C 173.515,9.84254 187.849,7.00921 203.5,10C 220.964,14.1294 232.797,24.6294 239,41.5C 241.397,49.0059 243.063,56.6726 244,64.5C 245.832,67.3613 247.999,69.8613 250.5,72C 249.271,73.5292 247.771,74.6959 246,75.5C 245.529,77.2464 244.862,78.913 244,80.5C 242.999,87.4148 241.499,94.0814 239.5,100.5 Z"/></g>
<g><path style="opacity:1" fill="#403c6b" d="M 84.5,12.5 C 78.3972,12.7711 72.3972,12.1044 66.5,10.5C 54.1944,11.9153 41.8611,12.9153 29.5,13.5C 28.5836,13.4573 27.9169,13.1239 27.5,12.5C 29.6071,10.3485 32.2738,9.34845 35.5,9.5C 38.3199,9.57805 40.9866,10.2447 43.5,11.5C 57.4236,7.39886 71.0902,7.73219 84.5,12.5 Z"/></g>
<g><path style="opacity:1" fill="#413b68" d="M 477.5,11.5 C 466.178,12.1278 454.845,12.6278 443.5,13C 442.167,14 440.833,15 439.5,16C 442.166,17.0605 444.833,17.8939 447.5,18.5C 444.421,18.2601 441.421,18.5934 438.5,19.5C 437.276,17.1022 437.442,14.7689 439,12.5C 443.56,8.93848 448.393,8.60514 453.5,11.5C 457.726,8.88842 461.892,8.88842 466,11.5C 469.923,8.85754 473.756,8.85754 477.5,11.5 Z"/></g>
<g><path style="opacity:1" fill="#423a6b" d="M 423.5,13.5 C 420.972,12.9886 418.472,12.3219 416,11.5C 406.082,13.0734 396.082,14.0734 386,14.5C 381.642,12.1915 377.142,11.8582 372.5,13.5C 372.5,15.1667 372.5,16.8333 372.5,18.5C 371.07,18.4208 369.736,18.7542 368.5,19.5C 367.369,17.9255 367.202,16.2588 368,14.5C 373.91,9.06259 380.577,8.06259 388,11.5C 393.87,8.94963 399.703,8.94963 405.5,11.5C 412.088,8.34976 418.088,9.01643 423.5,13.5 Z"/></g>
<g><path style="opacity:1" fill="#433969" d="M 21.5,10.5 C 16.7385,9.52219 13.0719,11.0222 10.5,15C 12.8776,16.6982 15.211,18.5315 17.5,20.5C 13.9249,18.7142 10.2582,18.3809 6.5,19.5C 5.36912,17.9255 5.20245,16.2588 6,14.5C 7.04499,13.6266 7.87833,12.6266 8.5,11.5C 12.829,9.45912 17.1623,9.12579 21.5,10.5 Z"/></g>
<g><path style="opacity:1" fill="#2e2c70" d="M 21.5,10.5 C 23.3146,11.6298 25.3146,12.2964 27.5,12.5C 27.9169,13.1239 28.5836,13.4573 29.5,13.5C 41.8611,12.9153 54.1944,11.9153 66.5,10.5C 72.3972,12.1044 78.3972,12.7711 84.5,12.5C 86.59,17.0585 90.2567,19.3919 95.5,19.5C 97.5638,21.4329 97.5638,23.5995 95.5,26C 95.9304,27.4341 96.7638,28.6008 98,29.5C 98.2896,27.9559 98.9563,26.6226 100,25.5C 101.361,27.0284 102.528,28.6951 103.5,30.5C 106.374,31.1061 108.707,32.4395 110.5,34.5C 111.338,34.8417 111.672,35.5084 111.5,36.5C 111.335,39.5184 111.502,42.5184 112,45.5C 113.677,47.5252 114.677,49.8585 115,52.5C 115.333,56.8333 115.667,61.1667 116,65.5C 118.214,68.3891 120.381,71.3891 122.5,74.5C 121.5,74.8333 120.833,75.5 120.5,76.5C 118.672,77.7945 116.672,78.7945 114.5,79.5C 114.666,85.5092 114.499,91.5092 114,97.5C 111.922,100.87 111.089,104.537 111.5,108.5C 109.278,108.178 107.444,108.845 106,110.5C 103.551,117.69 99.718,124.024 94.5,129.5C 93.5224,129.023 92.6891,128.357 92,127.5C 91.6667,127.833 91.3333,128.167 91,128.5C 89,127.833 87,127.167 85,126.5C 84.8333,126.833 84.6667,127.167 84.5,127.5C 88.0206,128.15 89.0206,129.983 87.5,133C 83.8712,134.608 80.2046,135.108 76.5,134.5C 74.6239,135.875 72.6239,137.042 70.5,138C 64.5,138.667 58.5,138.667 52.5,138C 50.5789,137.64 48.9122,136.806 47.5,135.5C 40.1145,137.705 32.7811,137.705 25.5,135.5C 21.5237,136.442 17.5237,136.609 13.5,136C 12.5,135.167 11.5,134.333 10.5,133.5C 10.7093,132.914 11.0426,132.414 11.5,132C 14.8536,131.545 18.1869,131.045 21.5,130.5C 21.6477,125.42 22.6477,120.587 24.5,116C 23.7671,104.513 23.2671,93.0135 23,81.5C 22.5831,80.244 21.7498,79.5774 20.5,79.5C 20.1218,77.3537 19.7885,75.187 19.5,73C 20.7037,70.0025 21.5371,66.8359 22,63.5C 22.6667,50.1667 22.6667,36.8333 22,23.5C 21.4785,20.4176 19.9785,19.4176 17.5,20.5C 15.211,18.5315 12.8776,16.6982 10.5,15C 13.0719,11.0222 16.7385,9.52219 21.5,10.5 Z"/></g>
<g><path style="opacity:1" fill="#443f60" d="M 423.5,13.5 C 425.074,15.1016 425.741,17.1016 425.5,19.5C 423.139,19.3259 420.806,18.9926 418.5,18.5C 419.568,17.5655 420.901,17.2322 422.5,17.5C 422.433,16.0413 422.766,14.7079 423.5,13.5 Z"/></g>
<g><path style="opacity:1" fill="#312f6f" d="M 423.5,13.5 C 422.766,14.7079 422.433,16.0413 422.5,17.5C 420.901,17.2322 419.568,17.5655 418.5,18.5C 418.167,18.5 417.833,18.5 417.5,18.5C 414.453,17.8554 412.287,18.8554 411,21.5C 410.5,35.496 410.333,49.496 410.5,63.5C 408.888,60.2557 407.888,56.589 407.5,52.5C 406.808,53.0253 406.308,53.6919 406,54.5C 405.333,59.1667 405.333,63.8333 406,68.5C 407.392,66.1582 408.225,66.1582 408.5,68.5C 407.685,69.8366 406.518,70.8366 405,71.5C 404.235,55.9894 405.235,40.6561 408,25.5C 408.624,18.5864 412.458,14.9197 419.5,14.5C 418.672,13.5853 417.672,12.9186 416.5,12.5C 412.895,13.9852 409.228,15.3185 405.5,16.5C 401.506,24.001 400.506,31.6677 402.5,39.5C 402.061,48.3568 401.394,57.1901 400.5,66C 400.658,68.1493 401.492,69.9826 403,71.5C 403.167,77.1667 403.333,82.8333 403.5,88.5C 403.306,101.764 402.306,114.764 400.5,127.5C 401.552,127.351 402.552,127.517 403.5,128C 403.167,128.333 402.833,128.667 402.5,129C 396.141,129.169 389.807,129.669 383.5,130.5C 382.229,132.829 380.229,133.995 377.5,134C 377.167,134.333 376.833,134.667 376.5,135C 378.765,136.118 381.099,136.951 383.5,137.5C 382.207,138.158 380.707,138.492 379,138.5C 375.752,138.06 372.585,137.393 369.5,136.5C 369.167,135.5 368.5,134.833 367.5,134.5C 367.5,133.167 367.5,131.833 367.5,130.5C 370.85,130.665 374.183,130.498 377.5,130C 379.286,129.215 380.786,128.049 382,126.5C 382.667,110.5 382.667,94.5 382,78.5C 380.104,76.4701 377.937,74.8034 375.5,73.5C 374.614,72.675 374.281,71.675 374.5,70.5C 377.988,69.8566 380.488,67.8566 382,64.5C 382.667,50.8333 382.667,37.1667 382,23.5C 379.715,20.1078 376.548,18.4411 372.5,18.5C 372.5,16.8333 372.5,15.1667 372.5,13.5C 377.142,11.8582 381.642,12.1915 386,14.5C 396.082,14.0734 406.082,13.0734 416,11.5C 418.472,12.3219 420.972,12.9886 423.5,13.5 Z"/></g>
<g><path style="opacity:1" fill="#3e3565" d="M 480.5,13.5 C 481.341,15.3792 481.675,17.3792 481.5,19.5C 477.064,19.2101 472.73,19.7101 468.5,21C 465.443,23.7226 462.11,26.056 458.5,28C 456.6,30.3353 454.6,32.502 452.5,34.5C 452.343,33.1266 452.51,31.7932 453,30.5C 456.68,27.2641 460.18,23.9308 463.5,20.5C 468.688,18.8156 474.022,18.149 479.5,18.5C 479.216,16.5853 479.549,14.9187 480.5,13.5 Z"/></g>
<g><path style="opacity:1" fill="#302e6b" d="M 604.5,70.5 C 605.963,55.8184 605.796,41.1517 604,26.5C 599.914,17.2049 593.081,14.0382 583.5,17C 581.944,17.7202 580.944,18.8868 580.5,20.5C 577.972,22.8895 576.472,25.8895 576,29.5C 575.5,40.8284 575.333,52.1618 575.5,63.5C 576.994,79.5759 584.994,84.2426 599.5,77.5C 599.064,79.7463 598.397,81.9129 597.5,84C 598.308,85.7058 599.641,86.5391 601.5,86.5C 600.116,87.8009 598.616,87.8009 597,86.5C 595.391,89.1105 593.058,90.4439 590,90.5C 583.27,90.0637 576.77,89.0637 570.5,87.5C 573.85,87.3865 577.183,87.0531 580.5,86.5C 584.772,87.7629 589.105,88.2629 593.5,88C 594.833,86.6667 594.833,85.3333 593.5,84C 589.179,83.501 584.846,83.3343 580.5,83.5C 580.5,82.1667 580.5,80.8333 580.5,79.5C 573.738,76.3608 569.571,71.0275 568,63.5C 567.666,56.8194 567.166,50.1527 566.5,43.5C 567.38,39.529 568.047,35.529 568.5,31.5C 569.978,31.762 571.311,31.4287 572.5,30.5C 569.091,25.7543 570.091,22.7543 575.5,21.5C 575.5,20.5 575.5,19.5 575.5,18.5C 578.061,18.5531 580.061,17.5531 581.5,15.5C 579.326,13.7605 579.993,12.7605 583.5,12.5C 589.5,13.8333 595.5,13.8333 601.5,12.5C 608.571,13.4485 608.904,14.7819 602.5,16.5C 605.879,23.4182 607.546,30.7515 607.5,38.5C 606.522,48.0144 606.522,57.5144 607.5,67C 607.333,68.1667 607.167,69.3333 607,70.5C 606.023,71.7736 605.189,71.7736 604.5,70.5 Z"/></g>
<g><path style="opacity:1" fill="#2e2d70" d="M 633.5,30.5 C 634.251,42.7744 637.084,54.441 642,65.5C 642.333,65.1667 642.667,64.8333 643,64.5C 643.495,66.4727 643.662,68.4727 643.5,70.5C 642.833,71.8333 642.167,73.1667 641.5,74.5C 640.883,74.3893 640.383,74.056 640,73.5C 639.952,76.3294 638.952,78.6627 637,80.5C 636.034,87.494 635.201,94.494 634.5,101.5C 633.258,105.655 631.258,109.322 628.5,112.5C 627.883,112.389 627.383,112.056 627,111.5C 625.667,112.833 624.333,114.167 623,115.5C 622.275,113.842 621.108,113.342 619.5,114C 618.908,117.032 617.574,119.698 615.5,122C 615.833,122.333 616.167,122.667 616.5,123C 612.129,123.828 607.795,123.661 603.5,122.5C 601.717,119.22 602.383,116.72 605.5,115C 605.167,114.667 604.833,114.333 604.5,114C 606.216,111.065 607.216,107.899 607.5,104.5C 607.334,99.3077 607.167,93.9744 607,88.5C 606.617,87.944 606.117,87.6107 605.5,87.5C 604.833,87.5 604.167,87.5 603.5,87.5C 603.158,86.6618 602.492,86.3284 601.5,86.5C 599.641,86.5391 598.308,85.7058 597.5,84C 598.397,81.9129 599.064,79.7463 599.5,77.5C 601.412,75.3428 603.079,73.0094 604.5,70.5C 605.189,71.7736 606.023,71.7736 607,70.5C 607.167,69.3333 607.333,68.1667 607.5,67C 606.522,57.5144 606.522,48.0144 607.5,38.5C 607.546,30.7515 605.879,23.4182 602.5,16.5C 608.904,14.7819 608.571,13.4485 601.5,12.5C 595.5,13.8333 589.5,13.8333 583.5,12.5C 579.993,12.7605 579.326,13.7605 581.5,15.5C 580.061,17.5531 578.061,18.5531 575.5,18.5C 575.5,19.5 575.5,20.5 575.5,21.5C 570.091,22.7543 569.091,25.7543 572.5,30.5C 571.311,31.4287 569.978,31.762 568.5,31.5C 568.047,35.529 567.38,39.529 566.5,43.5C 567.166,50.1527 567.666,56.8194 568,63.5C 569.571,71.0275 573.738,76.3608 580.5,79.5C 580.5,80.8333 580.5,82.1667 580.5,83.5C 584.846,83.3343 589.179,83.501 593.5,84C 594.833,85.3333 594.833,86.6667 593.5,88C 589.105,88.2629 584.772,87.7629 580.5,86.5C 577.183,87.0531 573.85,87.3865 570.5,87.5C 569.167,87.5 567.833,87.5 566.5,87.5C 561.548,85.207 557.548,81.8736 554.5,77.5C 553.781,75.2362 553.448,72.9029 553.5,70.5C 554.5,70.5 555.5,70.5 556.5,70.5C 556.822,68.2776 556.155,66.4443 554.5,65C 554.833,64.6667 555.167,64.3333 555.5,64C 553.104,63.134 552.437,63.634 553.5,65.5C 553.192,66.3081 552.692,66.9747 552,67.5C 551.028,65.6951 549.861,64.0284 548.5,62.5C 550.824,57.7807 550.491,53.4474 547.5,49.5C 548.052,47.6666 548.885,45.9999 550,44.5C 550.333,44.8333 550.667,45.1667 551,45.5C 552.066,43.9005 553.566,42.9005 555.5,42.5C 556.665,39.4648 556.498,36.4648 555,33.5C 551.91,37.0432 549.743,37.0432 548.5,33.5C 548.947,27.6968 550.947,27.0301 554.5,31.5C 556.055,31.278 557.389,30.6113 558.5,29.5C 559.623,31.289 560.956,31.6224 562.5,30.5C 560.54,28.7095 559.207,26.5428 558.5,24C 556.65,24.5948 554.65,25.0948 552.5,25.5C 552.878,23.079 553.545,20.7457 554.5,18.5C 556.086,17.5868 557.586,17.5868 559,18.5C 559.483,17.552 559.649,16.552 559.5,15.5C 561.857,15.6633 564.19,15.4966 566.5,15C 580.146,5.2369 594.813,3.90357 610.5,11C 612.167,12 613.5,13.3333 614.5,15C 616.167,15.3333 617.833,15.6667 619.5,16C 618.167,17 618.167,18 619.5,19C 621.556,19.3108 623.556,19.8108 625.5,20.5C 626.731,21.6507 626.731,22.8173 625.5,24C 628.135,25.9605 629.969,28.4605 631,31.5C 631.342,29.3808 632.175,29.0474 633.5,30.5 Z"/></g>
<g><path style="opacity:1" fill="#fdfcfc" d="M 587.5,18.5 C 595.48,18.6434 600.314,22.6434 602,30.5C 602.667,43.1667 602.667,55.8333 602,68.5C 598.493,77.1621 592.326,79.6621 583.5,76C 581.951,74.786 580.785,73.286 580,71.5C 578.553,57.5729 578.053,43.5729 578.5,29.5C 579.217,27.0466 580.384,24.7133 582,22.5C 583.98,21.2509 585.813,19.9176 587.5,18.5 Z"/></g>
<g><path style="opacity:1" fill="#fdfbfc" d="M 2.5,19.5 C 4.07413,24.0203 6.7408,24.687 10.5,21.5C 13.1113,21.5559 15.278,22.5559 17,24.5C 17.6667,37.5 17.6667,50.5 17,63.5C 16.5348,64.9308 15.7014,66.0975 14.5,67C 10.9183,68.375 7.58494,70.0416 4.5,72C 7.18696,73.9402 10.187,75.4402 13.5,76.5C 15.7025,78.2954 16.8692,80.6288 17,83.5C 18.0337,98.9415 17.5337,114.275 15.5,129.5C 12.1879,129.007 9.02122,128.007 6,126.5C 3.41021,128.001 2.07687,130.335 2,133.5C 1.18285,95.0541 1.34952,57.0541 2.5,19.5 Z"/></g>
<g><path style="opacity:1" fill="#ded3e7" d="M 117.5,51.5 C 116.26,46.2139 114.26,41.2139 111.5,36.5C 111.672,35.5084 111.338,34.8417 110.5,34.5C 105.208,23.21 96.5412,15.8767 84.5,12.5C 71.0902,7.73219 57.4236,7.39886 43.5,11.5C 40.9866,10.2447 38.3199,9.57805 35.5,9.5C 32.2738,9.34845 29.6071,10.3485 27.5,12.5C 25.3146,12.2964 23.3146,11.6298 21.5,10.5C 17.1623,9.12579 12.829,9.45912 8.5,11.5C 7.40191,10.603 7.40191,9.76971 8.5,9C 14.2091,5.97188 20.0425,5.80521 26,8.5C 32.2224,6.09316 38.389,6.09316 44.5,8.5C 57.4375,6.0491 70.4375,5.88243 83.5,8C 105.129,15.6181 116.962,30.7847 119,53.5C 118.841,51.6573 118.341,50.9907 117.5,51.5 Z"/></g>
<g><path style="opacity:1" fill="#fdfcfc" d="M 84.5,100.5 C 84.5,101.5 84.5,102.5 84.5,103.5C 83.6981,102.048 83.1981,100.382 83,98.5C 82.2685,107.54 79.1018,115.54 73.5,122.5C 71.6641,123.919 69.6641,125.086 67.5,126C 68.7375,126.232 69.7375,126.732 70.5,127.5C 70.1667,127.5 69.8333,127.5 69.5,127.5C 63.7759,128.168 58.4426,127.168 53.5,124.5C 52.3334,90.8383 52.1668,57.1716 53,23.5C 65.7346,21.2006 74.4012,26.2006 79,38.5C 82.9018,46.7731 84.2351,55.4398 83,64.5C 82.3551,65.646 81.5217,66.646 80.5,67.5C 77.2809,68.9389 74.2809,70.6056 71.5,72.5C 74.0409,73.9367 76.7076,75.1034 79.5,76C 81,76.8333 82.1667,78 83,79.5C 83.2794,86.5334 83.7794,93.5334 84.5,100.5 Z"/></g>
<g><path style="opacity:1" fill="#dcd3e5" d="M 79.5,32.5 C 83.5621,40.8568 85.8955,49.6901 86.5,59C 86.8558,65.3036 84.1891,69.6369 78.5,72C 81.8067,73.7283 84.3067,76.2283 86,79.5C 86.5393,86.707 86.0393,93.707 84.5,100.5C 83.7794,93.5334 83.2794,86.5334 83,79.5C 82.1667,78 81,76.8333 79.5,76C 76.7076,75.1034 74.0409,73.9367 71.5,72.5C 74.2809,70.6056 77.2809,68.9389 80.5,67.5C 81.5217,66.646 82.3551,65.646 83,64.5C 84.2351,55.4398 82.9018,46.7731 79,38.5C 74.4012,26.2006 65.7346,21.2006 53,23.5C 52.1668,57.1716 52.3334,90.8383 53.5,124.5C 58.4426,127.168 63.7759,128.168 69.5,127.5C 63.2478,130.404 57.0811,130.071 51,126.5C 50.5,91.1682 50.3333,55.8349 50.5,20.5C 58.041,18.4338 65.041,19.6005 71.5,24C 74.3993,26.7291 77.066,29.5624 79.5,32.5 Z"/></g>
<g><path style="opacity:1" fill="#363269" d="M 84.5,12.5 C 96.5412,15.8767 105.208,23.21 110.5,34.5C 108.707,32.4395 106.374,31.1061 103.5,30.5C 102.528,28.6951 101.361,27.0284 100,25.5C 98.9563,26.6226 98.2896,27.9559 98,29.5C 96.7638,28.6008 95.9304,27.4341 95.5,26C 97.5638,23.5995 97.5638,21.4329 95.5,19.5C 90.2567,19.3919 86.59,17.0585 84.5,12.5 Z"/></g>
<g><path style="opacity:1" fill="#2e2c71" d="M 239.5,100.5 C 239.5,100.833 239.5,101.167 239.5,101.5C 238.883,101.389 238.383,101.056 238,100.5C 235.386,104.45 233.719,109.45 233,115.5C 230.181,117.175 228.348,119.509 227.5,122.5C 225.128,123.914 222.961,123.58 221,121.5C 220.251,109.484 220.417,97.4839 221.5,85.5C 221.422,82.6801 220.755,80.0134 219.5,77.5C 220.302,74.5514 220.636,71.5514 220.5,68.5C 219.325,68.281 218.325,68.6143 217.5,69.5C 214.589,75.1988 214.922,80.6988 218.5,86C 217.599,88.8711 216.599,91.7044 215.5,94.5C 216.628,101.116 216.795,107.782 216,114.5C 214.86,117.018 213.694,117.018 212.5,114.5C 212.783,101.346 211.783,88.346 209.5,75.5C 211.654,61.0784 211.987,46.4117 210.5,31.5C 209.735,30.3881 208.735,29.7214 207.5,29.5C 207.5,27.1667 207.5,24.8333 207.5,22.5C 206.448,22.6495 205.448,22.4828 204.5,22C 203.421,19.957 201.754,18.6237 199.5,18C 190.878,17.679 182.878,16.5123 175.5,14.5C 180.612,13.2157 185.779,12.2157 191,11.5C 199.158,12.7912 207.325,14.1245 215.5,15.5C 215.773,20.3316 218.44,22.3316 223.5,21.5C 223.33,22.8221 223.663,23.9887 224.5,25C 226.384,25.2163 228.051,25.883 229.5,27C 227.676,28.9893 225.676,30.8226 223.5,32.5C 224.522,33.354 225.355,34.354 226,35.5C 227.253,47.2632 228.92,47.2632 231,35.5C 232.333,36.1667 233.667,36.8333 235,37.5C 235.455,40.8536 235.955,44.1869 236.5,47.5C 237.5,47.5 238.5,47.5 239.5,47.5C 239.068,53.0037 239.735,58.3371 241.5,63.5C 240.453,65.0564 239.786,66.7231 239.5,68.5C 241.144,68.2865 242.644,68.6198 244,69.5C 244.208,71.859 244.374,74.0257 244.5,76C 243.552,76.4828 242.552,76.6495 241.5,76.5C 240.308,84.4462 239.641,92.4462 239.5,100.5 Z"/></g>
<g><path style="opacity:1" fill="#2f2c6f" d="M 477.5,11.5 C 479.027,11.427 480.027,12.0937 480.5,13.5C 479.549,14.9187 479.216,16.5853 479.5,18.5C 474.022,18.149 468.688,18.8156 463.5,20.5C 460.18,23.9308 456.68,27.2641 453,30.5C 452.51,31.7932 452.343,33.1266 452.5,34.5C 450.785,36.8818 448.785,38.8818 446.5,40.5C 444.822,39.2529 443.489,37.5862 442.5,35.5C 445.594,31.5907 448.428,27.5907 451,23.5C 451.49,22.2068 451.657,20.8734 451.5,19.5C 450.167,19.5 448.833,19.5 447.5,19.5C 447.5,19.1667 447.5,18.8333 447.5,18.5C 444.833,17.8939 442.166,17.0605 439.5,16C 440.833,15 442.167,14 443.5,13C 454.845,12.6278 466.178,12.1278 477.5,11.5 Z"/></g>
<g><path style="opacity:1" fill="#dfdce0" d="M -0.5,-0.5 C 0.166667,-0.5 0.833333,-0.5 1.5,-0.5C 1.17859,5.02621 1.51192,10.3595 2.5,15.5C 2.5,16.8333 2.5,18.1667 2.5,19.5C 1.34952,57.0541 1.18285,95.0541 2,133.5C 2.07687,130.335 3.41021,128.001 6,126.5C 9.02122,128.007 12.1879,129.007 15.5,129.5C 12.3752,130.479 9.04185,130.813 5.5,130.5C 5.40027,133.108 6.06694,135.442 7.5,137.5C 6.77842,137.918 6.27842,138.584 6,139.5C 4.66667,138.167 3.33333,136.833 2,135.5C 1.50137,139.152 1.3347,142.818 1.5,146.5C 0.833333,146.5 0.166667,146.5 -0.5,146.5C -0.5,97.5 -0.5,48.5 -0.5,-0.5 Z"/></g>
<g><path style="opacity:1" fill="#3d3761" d="M 417.5,18.5 C 414.53,19.989 412.53,22.3223 411.5,25.5C 411.5,37.5 411.5,49.5 411.5,61.5C 411.5,63.1667 411.5,64.8333 411.5,66.5C 410.596,65.791 410.263,64.791 410.5,63.5C 410.333,49.496 410.5,35.496 411,21.5C 412.287,18.8554 414.453,17.8554 417.5,18.5 Z"/></g>
<g><path style="opacity:1" fill="#423f6a" d="M 50.5,20.5 C 50.3333,55.8349 50.5,91.1682 51,126.5C 57.0811,130.071 63.2478,130.404 69.5,127.5C 69.8333,127.5 70.1667,127.5 70.5,127.5C 72.0618,127.267 73.3951,126.6 74.5,125.5C 74.6495,126.552 74.4828,127.552 74,128.5C 70.1003,130.979 65.767,131.979 61,131.5C 55.4273,132.623 51.094,130.957 48,126.5C 48.7966,96.338 48.6299,66.1713 47.5,36C 47.6667,32.1667 47.8333,28.3333 48,24.5C 48.9344,23.1416 49.7677,21.8083 50.5,20.5 Z"/></g>
<g><path style="opacity:1" fill="#ddd2e6" d="M 338.5,29.5 C 337.732,30.2625 337.232,31.2625 337,32.5C 331.323,22.1077 322.823,19.1077 311.5,23.5C 304.119,30.1634 301.452,38.4967 303.5,48.5C 300.56,60.1238 304.56,67.9571 315.5,72C 312.417,72.786 310.251,74.6193 309,77.5C 308.667,77.1667 308.333,76.8333 308,76.5C 306.504,78.4105 305.171,80.4105 304,82.5C 303.333,92.5 303.333,102.5 304,112.5C 304.413,115.843 305.913,119.01 308.5,122C 310.67,123.586 313.004,124.92 315.5,126C 336.244,128.431 344.577,119.598 340.5,99.5C 341.918,96.0089 344.584,94.3422 348.5,94.5C 353.927,94.0495 357.427,96.3828 359,101.5C 360.491,110.005 359.157,118.005 355,125.5C 349.701,132.127 343.201,137.294 335.5,141C 316.218,146.472 298.551,143.472 282.5,132C 270.379,119.906 264.379,105.573 264.5,89C 262.757,83.8954 260.091,79.2287 256.5,75C 255.167,74.3333 253.833,74.3333 252.5,75C 250.983,76.6851 249.316,78.1851 247.5,79.5C 245.321,90.2233 242.821,100.89 240,111.5C 234.594,122.568 226.76,131.401 216.5,138C 198.947,145.567 181.614,145.234 164.5,137C 148.017,125.543 139.184,109.71 138,89.5C 138.333,90.8333 138.667,92.1667 139,93.5C 139.483,92.552 139.649,91.552 139.5,90.5C 140.795,95.7612 142.295,101.094 144,106.5C 144.86,109.633 146.36,112.3 148.5,114.5C 148.975,116.784 149.975,118.784 151.5,120.5C 156.254,128.212 162.921,133.545 171.5,136.5C 187.867,142.607 203.867,141.44 219.5,133C 229.831,124.841 236.498,114.341 239.5,101.5C 239.5,101.167 239.5,100.833 239.5,100.5C 241.499,94.0814 242.999,87.4148 244,80.5C 244.862,78.913 245.529,77.2464 246,75.5C 247.771,74.6959 249.271,73.5292 250.5,72C 247.999,69.8613 245.832,67.3613 244,64.5C 243.063,56.6726 241.397,49.0059 239,41.5C 232.797,24.6294 220.964,14.1294 203.5,10C 187.849,7.00921 173.515,9.84254 160.5,18.5C 160.389,17.8826 160.056,17.3826 159.5,17C 161.208,14.9565 163.208,13.2899 165.5,12C 192.255,0.81203 215.422,5.64536 235,26.5C 241.396,38.3582 245.396,51.0249 247,64.5C 252.325,72.5295 257.325,72.1962 262,63.5C 266.661,23.1619 289.161,4.32854 329.5,7C 347.52,11.0222 358.02,22.1889 361,40.5C 363.197,42.0047 364.697,44.0047 365.5,46.5C 365.314,48.5795 364.314,50.0795 362.5,51C 359.043,52.7435 355.377,53.7435 351.5,54C 346.255,59.2199 340.088,61.0533 333,59.5C 333.153,56.8262 333.653,54.1595 334.5,51.5C 326.724,50.7124 323.391,46.3791 324.5,38.5C 330.194,40.5678 334.36,38.9011 337,33.5C 337.333,33.8333 337.667,34.1667 338,34.5C 338.494,32.8659 338.66,31.1992 338.5,29.5 Z"/></g>
<g><path style="opacity:1" fill="#2e2b70" d="M 346.5,54.5 C 345.833,54.8333 345.167,55.1667 344.5,55.5C 342.901,55.7678 341.568,55.4345 340.5,54.5C 340.56,50.3789 339.56,46.5455 337.5,43C 341.3,40.2454 342.967,36.7454 342.5,32.5C 344.766,31.6858 347.1,31.1858 349.5,31C 348.396,29.8687 348.729,29.0354 350.5,28.5C 354.207,35.0247 356.54,42.0247 357.5,49.5C 354.756,49.7521 352.256,49.0855 350,47.5C 347.777,49.2802 346.61,51.6135 346.5,54.5 Z"/></g>
<g><path style="opacity:1" fill="#2e2c71" d="M 342.5,15.5 C 341.595,19.2422 343.262,20.9088 347.5,20.5C 348.546,24.7786 347.046,27.4452 343,28.5C 342.141,25.3406 340.975,22.3406 339.5,19.5C 338.481,20.6872 337.314,21.6872 336,22.5C 331.398,18.3604 325.898,16.1938 319.5,16C 314.177,15.5006 308.844,15.334 303.5,15.5C 307.292,12.1272 311.792,10.7938 317,11.5C 325.683,12.2537 334.183,13.587 342.5,15.5 Z"/></g>
<g><path style="opacity:1" fill="#393468" d="M 342.5,15.5 C 334.183,13.587 325.683,12.2537 317,11.5C 311.792,10.7938 307.292,12.1272 303.5,15.5C 297.882,14.5307 293.549,16.364 290.5,21C 283.909,24.2635 279.409,29.4302 277,36.5C 276.257,38.4406 276.424,40.2739 277.5,42C 275.433,42.5356 273.599,42.0356 272,40.5C 271.814,42.9005 271.314,45.2338 270.5,47.5C 269.817,47.1373 269.15,46.8039 268.5,46.5C 278.852,17.9799 299.185,5.81324 329.5,10C 334.371,10.7875 338.705,12.6208 342.5,15.5 Z"/></g>
<g><path style="opacity:1" fill="#312f6a" d="M 554.5,18.5 C 553.545,20.7457 552.878,23.079 552.5,25.5C 554.65,25.0948 556.65,24.5948 558.5,24C 559.207,26.5428 560.54,28.7095 562.5,30.5C 560.956,31.6224 559.623,31.289 558.5,29.5C 557.389,30.6113 556.055,31.278 554.5,31.5C 550.947,27.0301 548.947,27.6968 548.5,33.5C 549.743,37.0432 551.91,37.0432 555,33.5C 556.498,36.4648 556.665,39.4648 555.5,42.5C 553.566,42.9005 552.066,43.9005 551,45.5C 550.667,45.1667 550.333,44.8333 550,44.5C 548.885,45.9999 548.052,47.6666 547.5,49.5C 550.491,53.4474 550.824,57.7807 548.5,62.5C 549.861,64.0284 551.028,65.6951 552,67.5C 552.692,66.9747 553.192,66.3081 553.5,65.5C 552.437,63.634 553.104,63.134 555.5,64C 555.167,64.3333 554.833,64.6667 554.5,65C 556.155,66.4443 556.822,68.2776 556.5,70.5C 555.5,70.5 554.5,70.5 553.5,70.5C 553.448,72.9029 553.781,75.2362 554.5,77.5C 551.611,74.7442 549.444,71.4109 548,67.5C 546.966,63.6674 545.8,60.0007 544.5,56.5C 544.5,55.8333 544.5,55.1667 544.5,54.5C 543.182,50.6681 540.848,47.5014 537.5,45C 539,43.5 540.5,42 542,40.5C 544.915,32.3229 549.082,24.9896 554.5,18.5 Z"/></g>
<g><path style="opacity:1" fill="#f6eaf5" d="M 587.5,18.5 C 585.813,19.9176 583.98,21.2509 582,22.5C 580.384,24.7133 579.217,27.0466 578.5,29.5C 577.658,40.7565 577.158,52.7565 577,65.5C 576.722,64.5842 576.222,63.9175 575.5,63.5C 575.333,52.1618 575.5,40.8284 576,29.5C 576.472,25.8895 577.972,22.8895 580.5,20.5C 582.833,19.8333 585.167,19.1667 587.5,18.5 Z"/></g>
<g><path style="opacity:1" fill="#353269" d="M 447.5,19.5 C 448.833,19.5 450.167,19.5 451.5,19.5C 451.657,20.8734 451.49,22.2068 451,23.5C 448.428,27.5907 445.594,31.5907 442.5,35.5C 443.489,37.5862 444.822,39.2529 446.5,40.5C 444.262,45.0711 441.262,49.0711 437.5,52.5C 438.249,49.0612 439.916,46.0612 442.5,43.5C 441.017,41.3438 439.017,40.0105 436.5,39.5C 437.167,41.8194 437.334,44.1527 437,46.5C 432.572,47.0919 429.405,49.4252 427.5,53.5C 426.914,53.2907 426.414,52.9574 426,52.5C 424.132,55.6051 422.965,58.9385 422.5,62.5C 421.911,64.3519 421.244,66.1852 420.5,68C 417.953,68.0674 415.786,68.9007 414,70.5C 412.984,69.3659 412.317,69.6992 412,71.5C 410.956,70.3774 410.29,69.0441 410,67.5C 409.617,68.056 409.117,68.3893 408.5,68.5C 408.225,66.1582 407.392,66.1582 406,68.5C 405.333,63.8333 405.333,59.1667 406,54.5C 406.308,53.6919 406.808,53.0253 407.5,52.5C 407.888,56.589 408.888,60.2557 410.5,63.5C 410.263,64.791 410.596,65.791 411.5,66.5C 424.683,52.4734 437.017,37.64 448.5,22C 448.257,21.0979 447.923,20.2646 447.5,19.5 Z"/></g>
<g><path style="opacity:1" fill="#322f68" d="M 303.5,27.5 C 300.618,38.6147 299.785,49.948 301,61.5C 301.847,63.8543 302.68,66.1877 303.5,68.5C 302.178,68.67 301.011,68.3366 300,67.5C 299.839,57.1244 299.172,46.791 298,36.5C 297.667,38.5 297.333,40.5 297,42.5C 296.667,41.8333 296.333,41.1667 296,40.5C 295.667,44.1667 295.333,47.8333 295,51.5C 293.347,49.7678 292.514,47.6011 292.5,45C 293.574,40.5442 294.241,36.0442 294.5,31.5C 296.144,31.2865 297.644,31.6198 299,32.5C 298.734,29.0992 300.234,27.4326 303.5,27.5 Z"/></g>
<g><path style="opacity:1" fill="#36326a" d="M 303.5,15.5 C 308.844,15.334 314.177,15.5006 319.5,16C 325.898,16.1938 331.398,18.3604 336,22.5C 337.314,21.6872 338.481,20.6872 339.5,19.5C 340.975,22.3406 342.141,25.3406 343,28.5C 347.046,27.4452 348.546,24.7786 347.5,20.5C 343.262,20.9088 341.595,19.2422 342.5,15.5C 352.033,21.8745 357.533,30.8745 359,42.5C 359.637,44.3031 360.803,45.6364 362.5,46.5C 361.687,47.8139 360.687,48.9805 359.5,50C 354.362,49.7051 350.028,51.2051 346.5,54.5C 346.61,51.6135 347.777,49.2802 350,47.5C 352.256,49.0855 354.756,49.7521 357.5,49.5C 356.54,42.0247 354.207,35.0247 350.5,28.5C 348.729,29.0354 348.396,29.8687 349.5,31C 347.1,31.1858 344.766,31.6858 342.5,32.5C 342.967,36.7454 341.3,40.2454 337.5,43C 339.56,46.5455 340.56,50.3789 340.5,54.5C 339.935,52.58 338.935,50.9133 337.5,49.5C 331.603,49.9399 327.936,47.2732 326.5,41.5C 335.844,42.1621 339.844,38.1621 338.5,29.5C 334.607,22.0405 328.273,18.3739 319.5,18.5C 312.615,18.9378 307.281,21.9378 303.5,27.5C 303.179,23.6277 304.512,20.461 307.5,18C 306.451,17.5078 305.451,17.6744 304.5,18.5C 303.614,17.675 303.281,16.675 303.5,15.5 Z"/></g>
<g><path style="opacity:1" fill="#2e2c70" d="M 303.5,15.5 C 303.281,16.675 303.614,17.675 304.5,18.5C 305.451,17.6744 306.451,17.5078 307.5,18C 304.512,20.461 303.179,23.6277 303.5,27.5C 300.234,27.4326 298.734,29.0992 299,32.5C 297.644,31.6198 296.144,31.2865 294.5,31.5C 294.241,36.0442 293.574,40.5442 292.5,45C 292.514,47.6011 293.347,49.7678 295,51.5C 295.333,47.8333 295.667,44.1667 296,40.5C 296.333,41.1667 296.667,41.8333 297,42.5C 297.333,40.5 297.667,38.5 298,36.5C 299.172,46.791 299.839,57.1244 300,67.5C 301.011,68.3366 302.178,68.67 303.5,68.5C 303.5,70.8333 303.5,73.1667 303.5,75.5C 301.856,75.2865 300.356,75.6198 299,76.5C 298.758,90.1715 299.091,103.838 300,117.5C 301.715,119.935 302.882,122.602 303.5,125.5C 306.025,126.64 308.692,127.307 311.5,127.5C 311.389,128.117 311.056,128.617 310.5,129C 320.329,133.934 329.662,133.267 338.5,127C 338.167,126.667 337.833,126.333 337.5,126C 339.421,125.64 341.088,124.806 342.5,123.5C 346.401,116.404 348.235,108.738 348,100.5C 349.458,99.2532 350.958,99.2532 352.5,100.5C 354.755,106.004 354.589,111.338 352,116.5C 351.503,118.81 351.337,121.143 351.5,123.5C 350.92,125.749 349.587,127.415 347.5,128.5C 344.773,127.479 342.773,128.479 341.5,131.5C 337.589,133.438 333.589,135.271 329.5,137C 322.833,139 316.167,139 309.5,137C 309.833,136.667 310.167,136.333 310.5,136C 309.471,134.302 307.971,133.468 306,133.5C 301.433,136.722 297.933,135.889 295.5,131C 292.879,130.061 290.212,129.228 287.5,128.5C 289.045,127.548 290.712,127.215 292.5,127.5C 291.969,124.763 291.136,122.096 290,119.5C 289.832,111.479 289.332,103.479 288.5,95.5C 287.833,105.5 287.167,115.5 286.5,125.5C 285.914,125.709 285.414,126.043 285,126.5C 284.546,123.388 282.713,121.722 279.5,121.5C 277.313,118.821 275.813,115.821 275,112.5C 274.667,112.833 274.333,113.167 274,113.5C 273.583,112.244 272.75,111.577 271.5,111.5C 271.5,110.833 271.5,110.167 271.5,109.5C 270.624,99.4815 269.624,89.4815 268.5,79.5C 267.167,79.5 265.833,79.5 264.5,79.5C 264.421,77.3337 263.754,75.3337 262.5,73.5C 265.649,65.721 267.983,57.721 269.5,49.5C 269.137,48.8165 268.804,48.1499 268.5,47.5C 268.5,47.1667 268.5,46.8333 268.5,46.5C 269.15,46.8039 269.817,47.1373 270.5,47.5C 271.314,45.2338 271.814,42.9005 272,40.5C 273.599,42.0356 275.433,42.5356 277.5,42C 276.424,40.2739 276.257,38.4406 277,36.5C 279.409,29.4302 283.909,24.2635 290.5,21C 293.549,16.364 297.882,14.5307 303.5,15.5 Z"/></g>
<g><path style="opacity:1" fill="#e5d9ec" d="M 207.5,29.5 C 208.577,40.8069 208.743,52.1402 208,63.5C 206.558,67.2749 204.058,70.1083 200.5,72C 205.466,75.1334 208.132,79.6334 208.5,85.5C 208.5,95.5 208.5,105.5 208.5,115.5C 207.637,117.421 206.971,119.421 206.5,121.5C 201.059,129.09 193.726,131.59 184.5,129C 177.963,126.302 174.296,121.468 173.5,114.5C 173.189,102.753 173.522,91.0861 174.5,79.5C 175.11,78.609 175.443,77.609 175.5,76.5C 177.358,75.4045 179.025,74.0712 180.5,72.5C 177.752,69.9191 175.586,66.9191 174,63.5C 173.333,52.8333 173.333,42.1667 174,31.5C 175,29.5 176,27.5 177,25.5C 188.497,16.6247 198.664,17.958 207.5,29.5 Z"/></g>
<g><path style="opacity:1" fill="#2e2c71" d="M 175.5,73.5 C 173.983,73.5106 172.816,74.1772 172,75.5C 171.667,75.1667 171.333,74.8333 171,74.5C 169.58,77.1841 169.08,79.8508 169.5,82.5C 168.614,81.675 168.281,80.675 168.5,79.5C 167.5,79.5 166.5,79.5 165.5,79.5C 165.544,91.8631 165.044,104.196 164,116.5C 164.689,117.357 165.522,118.023 166.5,118.5C 167.214,115.973 167.88,113.473 168.5,111C 168.5,103.333 168.5,95.6667 168.5,88C 169.46,86.5806 170.293,85.0806 171,83.5C 171.333,95.1667 171.667,106.833 172,118.5C 172.645,121.559 173.478,124.559 174.5,127.5C 175.315,129.276 176.482,129.943 178,129.5C 178.483,130.448 178.649,131.448 178.5,132.5C 188.72,134.575 198.553,133.575 208,129.5C 209.5,130 211,130.5 212.5,131C 211.748,131.671 211.414,132.504 211.5,133.5C 208.155,136.512 204.155,138.012 199.5,138C 190.081,138.846 180.748,138.346 171.5,136.5C 171.372,134.91 170.705,133.577 169.5,132.5C 164.776,131.777 162.11,129.11 161.5,124.5C 157.922,123.708 154.588,122.375 151.5,120.5C 149.975,118.784 148.975,116.784 148.5,114.5C 149.477,110.549 149.143,106.882 147.5,103.5C 146.311,102.571 144.978,102.238 143.5,102.5C 143.188,91.3203 140.855,80.6536 136.5,70.5C 137.951,69.094 139.284,67.594 140.5,66C 139.584,65.7216 138.918,65.2216 138.5,64.5C 138.5,64.1667 138.5,63.8333 138.5,63.5C 140.307,60.4815 141.807,57.1482 143,53.5C 143.333,50.5 143.667,47.5 144,44.5C 147.404,40.8985 149.237,36.5651 149.5,31.5C 153.035,28.8119 156.368,25.8119 159.5,22.5C 161.904,21.65 164.237,20.65 166.5,19.5C 167.246,18.2638 167.579,16.9305 167.5,15.5C 169.857,15.3367 172.19,15.5034 174.5,16C 176.336,18.5586 178.669,19.2253 181.5,18C 180.252,19.9586 178.585,21.4586 176.5,22.5C 175.571,23.6888 175.238,25.0222 175.5,26.5C 173.833,26.5 172.167,26.5 170.5,26.5C 171.215,39.8164 171.715,53.1497 172,66.5C 174.226,68.2847 175.392,70.6181 175.5,73.5 Z"/></g>
<g><path style="opacity:1" fill="#3f3a66" d="M 149.5,31.5 C 149.237,36.5651 147.404,40.8985 144,44.5C 143.667,47.5 143.333,50.5 143,53.5C 141.807,57.1482 140.307,60.4815 138.5,63.5C 139.41,51.7653 143.077,41.0986 149.5,31.5 Z"/></g>
<g><path style="opacity:1" fill="#3a3464" d="M 633.5,30.5 C 634.935,32.5976 636.102,34.9309 637,37.5C 638.611,44.4463 639.945,51.4463 641,58.5C 642.618,61.9429 644.785,64.9429 647.5,67.5C 646.148,68.5244 644.815,69.5244 643.5,70.5C 643.662,68.4727 643.495,66.4727 643,64.5C 642.667,64.8333 642.333,65.1667 642,65.5C 637.084,54.441 634.251,42.7744 633.5,30.5 Z"/></g>
<g><path style="opacity:1" fill="#3b3556" d="M 337.5,49.5 C 338.935,50.9133 339.935,52.58 340.5,54.5C 341.568,55.4345 342.901,55.7678 344.5,55.5C 344.389,56.1174 344.056,56.6174 343.5,57C 341.19,57.4966 338.857,57.6633 336.5,57.5C 337.092,54.8728 337.425,52.2062 337.5,49.5 Z"/></g>
<g><path style="opacity:1" fill="#f8eff8" d="M 411.5,25.5 C 412.829,30.7918 413.496,36.4585 413.5,42.5C 413.333,48.1667 413.167,53.8333 413,59.5C 412.722,60.4158 412.222,61.0825 411.5,61.5C 411.5,49.5 411.5,37.5 411.5,25.5 Z"/></g>
<g><path style="opacity:1" fill="#302d6d" d="M 437.5,52.5 C 441.09,59.3478 444.423,66.3478 447.5,73.5C 442.283,72.2764 439.616,68.9431 439.5,63.5C 437.753,61.0592 435.92,58.7259 434,56.5C 433.5,57 433,57.5 432.5,58C 433.406,59.6995 433.739,61.5328 433.5,63.5C 430.675,63.8384 428.508,62.8384 427,60.5C 425.371,60.1637 423.871,60.8304 422.5,62.5C 422.965,58.9385 424.132,55.6051 426,52.5C 426.414,52.9574 426.914,53.2907 427.5,53.5C 429.405,49.4252 432.572,47.0919 437,46.5C 437.334,44.1527 437.167,41.8194 436.5,39.5C 439.017,40.0105 441.017,41.3438 442.5,43.5C 439.916,46.0612 438.249,49.0612 437.5,52.5 Z"/></g>
<g><path style="opacity:1" fill="#ded4e7" d="M 550.5,137.5 C 552.913,139.051 555.579,139.717 558.5,139.5C 560.167,139.5 561.833,139.5 563.5,139.5C 563.5,137.167 563.5,134.833 563.5,132.5C 570.546,134.234 577.713,135.234 585,135.5C 604.074,136.051 618.574,128.385 628.5,112.5C 631.258,109.322 633.258,105.655 634.5,101.5C 637.905,92.882 640.239,83.882 641.5,74.5C 642.167,73.1667 642.833,71.8333 643.5,70.5C 644.815,69.5244 646.148,68.5244 647.5,67.5C 644.785,64.9429 642.618,61.9429 641,58.5C 639.945,51.4463 638.611,44.4463 637,37.5C 636.102,34.9309 634.935,32.5976 633.5,30.5C 627.117,16.9732 616.45,8.80654 601.5,6C 583.474,2.25274 567.807,6.41941 554.5,18.5C 549.082,24.9896 544.915,32.3229 542,40.5C 540.5,42 539,43.5 537.5,45C 540.848,47.5014 543.182,50.6681 544.5,54.5C 543.698,55.9516 543.198,57.6183 543,59.5C 542.468,56.7365 541.634,54.0698 540.5,51.5C 537.978,49.144 535.312,46.9773 532.5,45C 534.321,43.2567 536.321,41.7567 538.5,40.5C 548.77,11.6958 569.103,-0.804175 599.5,3C 619.245,5.73812 632.412,16.5715 639,35.5C 641.145,43.0782 642.812,50.7448 644,58.5C 644.667,59.8333 645.333,61.1667 646,62.5C 648.296,64.0569 650.462,65.7236 652.5,67.5C 648.47,69.3635 645.637,72.3635 644,76.5C 642.589,98.4503 633.423,116.284 616.5,130C 600.294,139.132 583.461,140.632 566,134.5C 565.883,135.95 566.05,137.45 566.5,139C 566.245,140.326 565.578,141.326 564.5,142C 559.771,142.996 555.271,142.496 551,140.5C 550.517,139.552 550.351,138.552 550.5,137.5 Z"/></g>
<g><path style="opacity:1" fill="#3b376a" d="M 633.5,30.5 C 632.175,29.0474 631.342,29.3808 631,31.5C 629.969,28.4605 628.135,25.9605 625.5,24C 626.731,22.8173 626.731,21.6507 625.5,20.5C 623.556,19.8108 621.556,19.3108 619.5,19C 618.167,18 618.167,17 619.5,16C 617.833,15.6667 616.167,15.3333 614.5,15C 613.5,13.3333 612.167,12 610.5,11C 594.813,3.90357 580.146,5.2369 566.5,15C 564.19,15.4966 561.857,15.6633 559.5,15.5C 559.649,16.552 559.483,17.552 559,18.5C 557.586,17.5868 556.086,17.5868 554.5,18.5C 567.807,6.41941 583.474,2.25274 601.5,6C 616.45,8.80654 627.117,16.9732 633.5,30.5 Z"/></g>
<g><path style="opacity:1" fill="#3c3564" d="M 111.5,36.5 C 114.26,41.2139 116.26,46.2139 117.5,51.5C 117.5,52.8333 117.5,54.1667 117.5,55.5C 117.222,62.8673 120.222,68.3673 126.5,72C 125.307,73.0946 123.973,73.928 122.5,74.5C 120.381,71.3891 118.214,68.3891 116,65.5C 115.667,61.1667 115.333,56.8333 115,52.5C 114.677,49.8585 113.677,47.5252 112,45.5C 111.502,42.5184 111.335,39.5184 111.5,36.5 Z"/></g>
<g><path style="opacity:1" fill="#373066" d="M 79.5,32.5 C 82.0961,33.2653 84.7628,33.5987 87.5,33.5C 87.6025,36.2186 87.2692,38.8853 86.5,41.5C 86.8868,43.2743 87.5535,44.941 88.5,46.5C 87.689,47.2164 87.0223,48.0497 86.5,49C 87.1416,54.1811 87.8082,59.3478 88.5,64.5C 87.6003,66.9316 86.9337,69.4316 86.5,72C 87.6153,83.8105 87.782,95.6439 87,107.5C 86.1841,108.823 85.0174,109.489 83.5,109.5C 83.8333,107.5 84.1667,105.5 84.5,103.5C 84.5,102.5 84.5,101.5 84.5,100.5C 86.0393,93.707 86.5393,86.707 86,79.5C 84.3067,76.2283 81.8067,73.7283 78.5,72C 84.1891,69.6369 86.8558,65.3036 86.5,59C 85.8955,49.6901 83.5621,40.8568 79.5,32.5 Z"/></g>
<g><path style="opacity:1" fill="#363461" d="M 20.5,79.5 C 17.6653,76.8347 14.6653,74.3347 11.5,72C 15.6667,70.5 18.5,67.6667 20,63.5C 20.6667,50.1667 20.6667,36.8333 20,23.5C 18.955,22.6266 18.1217,21.6266 17.5,20.5C 19.9785,19.4176 21.4785,20.4176 22,23.5C 22.6667,36.8333 22.6667,50.1667 22,63.5C 21.5371,66.8359 20.7037,70.0025 19.5,73C 19.7885,75.187 20.1218,77.3537 20.5,79.5 Z"/></g>
<g><path style="opacity:1" fill="#343166" d="M 207.5,29.5 C 208.735,29.7214 209.735,30.3881 210.5,31.5C 211.987,46.4117 211.654,61.0784 209.5,75.5C 211.783,88.346 212.783,101.346 212.5,114.5C 211.839,115.718 211.172,117.051 210.5,118.5C 209.914,118.291 209.414,117.957 209,117.5C 208.878,119.437 208.045,120.77 206.5,121.5C 206.971,119.421 207.637,117.421 208.5,115.5C 209.117,115.389 209.617,115.056 210,114.5C 210.167,109.667 210.333,104.833 210.5,100C 210.494,94.7843 209.827,89.951 208.5,85.5C 208.132,79.6334 205.466,75.1334 200.5,72C 204.058,70.1083 206.558,67.2749 208,63.5C 208.743,52.1402 208.577,40.8069 207.5,29.5 Z"/></g>
<g><path style="opacity:1" fill="#e5dbee" d="M 8.5,11.5 C 7.87833,12.6266 7.04499,13.6266 6,14.5C 5.20245,16.2588 5.36912,17.9255 6.5,19.5C 10.2582,18.3809 13.9249,18.7142 17.5,20.5C 18.1217,21.6266 18.955,22.6266 20,23.5C 20.6667,36.8333 20.6667,50.1667 20,63.5C 18.5,67.6667 15.6667,70.5 11.5,72C 14.6653,74.3347 17.6653,76.8347 20.5,79.5C 20.6666,94.837 20.4999,110.17 20,125.5C 19.2079,127.644 17.7079,128.977 15.5,129.5C 17.5337,114.275 18.0337,98.9415 17,83.5C 16.8692,80.6288 15.7025,78.2954 13.5,76.5C 10.187,75.4402 7.18696,73.9402 4.5,72C 7.58494,70.0416 10.9183,68.375 14.5,67C 15.7014,66.0975 16.5348,64.9308 17,63.5C 17.6667,50.5 17.6667,37.5 17,24.5C 15.278,22.5559 13.1113,21.5559 10.5,21.5C 6.7408,24.687 4.07413,24.0203 2.5,19.5C 2.5,18.1667 2.5,16.8333 2.5,15.5C 2.75169,11.2221 4.75169,9.88876 8.5,11.5 Z"/></g>
<g><path style="opacity:1" fill="#2f2d6d" d="M 227.5,122.5 C 225.357,124.255 223.691,126.422 222.5,129C 217.934,128.647 214.267,130.147 211.5,133.5C 211.414,132.504 211.748,131.671 212.5,131C 211,130.5 209.5,130 208,129.5C 198.553,133.575 188.72,134.575 178.5,132.5C 178.649,131.448 178.483,130.448 178,129.5C 176.482,129.943 175.315,129.276 174.5,127.5C 173.478,124.559 172.645,121.559 172,118.5C 171.667,106.833 171.333,95.1667 171,83.5C 170.293,85.0806 169.46,86.5806 168.5,88C 168.5,95.6667 168.5,103.333 168.5,111C 167.88,113.473 167.214,115.973 166.5,118.5C 165.522,118.023 164.689,117.357 164,116.5C 165.044,104.196 165.544,91.8631 165.5,79.5C 166.5,79.5 167.5,79.5 168.5,79.5C 168.281,80.675 168.614,81.675 169.5,82.5C 169.08,79.8508 169.58,77.1841 171,74.5C 171.333,74.8333 171.667,75.1667 172,75.5C 172.816,74.1772 173.983,73.5106 175.5,73.5C 175.5,74.5 175.5,75.5 175.5,76.5C 175.443,77.609 175.11,78.609 174.5,79.5C 173.171,84.9597 172.504,90.793 172.5,97C 172.501,103.01 172.834,108.843 173.5,114.5C 174.296,121.468 177.963,126.302 184.5,129C 193.726,131.59 201.059,129.09 206.5,121.5C 208.045,120.77 208.878,119.437 209,117.5C 209.414,117.957 209.914,118.291 210.5,118.5C 211.172,117.051 211.839,115.718 212.5,114.5C 213.694,117.018 214.86,117.018 216,114.5C 216.795,107.782 216.628,101.116 215.5,94.5C 216.599,91.7044 217.599,88.8711 218.5,86C 214.922,80.6988 214.589,75.1988 217.5,69.5C 218.325,68.6143 219.325,68.281 220.5,68.5C 220.636,71.5514 220.302,74.5514 219.5,77.5C 220.755,80.0134 221.422,82.6801 221.5,85.5C 220.417,97.4839 220.251,109.484 221,121.5C 222.961,123.58 225.128,123.914 227.5,122.5 Z"/></g>
<g><path style="opacity:1" fill="#fdfcfc" d="M 185.5,22.5 C 195.239,20.8789 201.739,24.5456 205,33.5C 205.667,43.8333 205.667,54.1667 205,64.5C 202.331,68.0915 198.831,70.5915 194.5,72C 196.67,73.5862 199.004,74.9196 201.5,76C 203.041,77.5793 204.208,79.4127 205,81.5C 205.667,93.8333 205.667,106.167 205,118.5C 198.959,127.635 191.125,129.468 181.5,124C 180,122.167 178.5,120.333 177,118.5C 175.427,107.559 175.094,96.5591 176,85.5C 176.342,81.4583 178.008,78.125 181,75.5C 181.333,75.8333 181.667,76.1667 182,76.5C 182.494,74.8659 182.66,73.1992 182.5,71.5C 183.552,71.6495 184.552,71.4828 185.5,71C 183,69.8333 181.167,68 180,65.5C 179.667,65.8333 179.333,66.1667 179,66.5C 177.561,64.7254 176.561,62.7254 176,60.5C 174.592,49.1469 175.592,38.1469 179,27.5C 181.352,25.9697 183.519,24.3031 185.5,22.5 Z"/></g>
<g><path style="opacity:1" fill="#dcd2e5" d="M 604.5,70.5 C 603.079,73.0094 601.412,75.3428 599.5,77.5C 584.994,84.2426 576.994,79.5759 575.5,63.5C 576.222,63.9175 576.722,64.5842 577,65.5C 577.158,52.7565 577.658,40.7565 578.5,29.5C 578.053,43.5729 578.553,57.5729 580,71.5C 580.785,73.286 581.951,74.786 583.5,76C 592.326,79.6621 598.493,77.1621 602,68.5C 602.667,55.8333 602.667,43.1667 602,30.5C 600.314,22.6434 595.48,18.6434 587.5,18.5C 585.167,19.1667 582.833,19.8333 580.5,20.5C 580.944,18.8868 581.944,17.7202 583.5,17C 593.081,14.0382 599.914,17.2049 604,26.5C 605.796,41.1517 605.963,55.8184 604.5,70.5 Z"/></g>
<g><path style="opacity:1" fill="#3c3667" d="M 641.5,74.5 C 640.239,83.882 637.905,92.882 634.5,101.5C 635.201,94.494 636.034,87.494 637,80.5C 638.952,78.6627 639.952,76.3294 640,73.5C 640.383,74.056 640.883,74.3893 641.5,74.5 Z"/></g>
<g><path style="opacity:1" fill="#353160" d="M 120.5,76.5 C 118.163,84.6587 116.33,92.9921 115,101.5C 114.102,104.069 112.935,106.402 111.5,108.5C 111.089,104.537 111.922,100.87 114,97.5C 114.499,91.5092 114.666,85.5092 114.5,79.5C 116.672,78.7945 118.672,77.7945 120.5,76.5 Z"/></g>
<g><path style="opacity:1" fill="#e1d6e7" d="M 431.5,99.5 C 435.239,107.886 439.072,116.219 443,124.5C 443.49,125.793 443.657,127.127 443.5,128.5C 440.016,130.616 436.349,130.949 432.5,129.5C 430.87,132.896 431.537,135.729 434.5,138C 437.688,139.316 441.022,139.816 444.5,139.5C 442.369,140.314 440.036,140.814 437.5,141C 439.833,141.333 442.167,141.667 444.5,142C 438.609,143.451 433.775,141.951 430,137.5C 429.605,135.821 429.772,134.155 430.5,132.5C 430.333,131.833 430.167,131.167 430,130.5C 429.667,131.5 429.333,132.5 429,133.5C 428.365,131.365 428.699,129.365 430,127.5C 432.911,127.218 435.744,127.218 438.5,127.5C 439.631,125.926 439.798,124.259 439,122.5C 432.746,108.658 425.912,94.9915 418.5,81.5C 416.568,82.1455 415.401,83.4788 415,85.5C 414.238,99.5256 414.404,113.526 415.5,127.5C 419.151,127.254 422.651,127.254 426,127.5C 428.141,131.321 427.974,134.988 425.5,138.5C 424.135,137.193 422.802,137.193 421.5,138.5C 421.5,137.833 421.5,137.167 421.5,136.5C 424.292,135.608 425.625,133.608 425.5,130.5C 422.15,130.665 418.817,130.498 415.5,130C 414.429,129.148 413.429,128.315 412.5,127.5C 411.351,112.908 411.185,98.2412 412,83.5C 414.19,81.6116 416.023,79.4449 417.5,77C 418.167,76.3333 418.833,76.3333 419.5,77C 423.402,84.641 427.402,92.141 431.5,99.5 Z"/></g>
<g><path style="opacity:1" fill="#383163" d="M 138.5,64.5 C 138.918,65.2216 139.584,65.7216 140.5,66C 139.284,67.594 137.951,69.094 136.5,70.5C 140.855,80.6536 143.188,91.3203 143.5,102.5C 144.978,102.238 146.311,102.571 147.5,103.5C 149.143,106.882 149.477,110.549 148.5,114.5C 146.36,112.3 144.86,109.633 144,106.5C 142.295,101.094 140.795,95.7612 139.5,90.5C 139.5,89.1667 139.5,87.8333 139.5,86.5C 139.291,80.2442 136.624,75.4109 131.5,72C 134.746,70.2576 137.079,67.7576 138.5,64.5 Z"/></g>
<g><path style="opacity:1" fill="#ded2e7" d="M 159.5,19.5 C 155.79,23.2079 152.457,27.2079 149.5,31.5C 143.077,41.0986 139.41,51.7653 138.5,63.5C 138.5,63.8333 138.5,64.1667 138.5,64.5C 137.079,67.7576 134.746,70.2576 131.5,72C 136.624,75.4109 139.291,80.2442 139.5,86.5C 138.732,85.7375 138.232,84.7375 138,83.5C 137.667,84.8333 137.333,86.1667 137,87.5C 136.707,82.6101 134.874,78.4435 131.5,75C 130.167,74.3333 128.833,74.3333 127.5,75C 125.167,76.6667 122.833,78.3333 120.5,80C 120.852,86.8168 120.019,93.6502 118,100.5C 113.848,117.031 104.348,129.198 89.5,137C 86.0271,136.865 83.1937,138.031 81,140.5C 69.2749,144.105 57.4416,144.438 45.5,141.5C 38.8523,143.157 32.3523,142.824 26,140.5C 20.1688,143.126 14.3355,143.126 8.5,140.5C 7.61432,139.675 7.28099,138.675 7.5,137.5C 13.7174,140.091 19.884,140.091 26,137.5C 32.0217,139.792 38.1883,140.126 44.5,138.5C 67.9962,144.254 88.1629,138.587 105,121.5C 108.223,117.646 110.39,113.312 111.5,108.5C 112.935,106.402 114.102,104.069 115,101.5C 116.33,92.9921 118.163,84.6587 120.5,76.5C 120.833,75.5 121.5,74.8333 122.5,74.5C 123.973,73.928 125.307,73.0946 126.5,72C 120.222,68.3673 117.222,62.8673 117.5,55.5C 118.397,56.5981 119.23,56.5981 120,55.5C 120.165,59.6609 121.332,63.4942 123.5,67C 130.177,71.3745 134.343,69.5411 136,61.5C 137.69,44.7148 144.524,30.5481 156.5,19C 157.577,18.5304 158.577,18.6971 159.5,19.5 Z"/></g>
<g><path style="opacity:1" fill="#433d69" d="M 601.5,86.5 C 602.492,86.3284 603.158,86.6618 603.5,87.5C 598.386,90.5941 592.719,91.9275 586.5,91.5C 579.405,91.6551 572.739,90.3218 566.5,87.5C 567.833,87.5 569.167,87.5 570.5,87.5C 576.77,89.0637 583.27,90.0637 590,90.5C 593.058,90.4439 595.391,89.1105 597,86.5C 598.616,87.8009 600.116,87.8009 601.5,86.5 Z"/></g>
<g><path style="opacity:1" fill="#373361" d="M 268.5,47.5 C 268.804,48.1499 269.137,48.8165 269.5,49.5C 267.983,57.721 265.649,65.721 262.5,73.5C 263.754,75.3337 264.421,77.3337 264.5,79.5C 265.833,79.5 267.167,79.5 268.5,79.5C 269.624,89.4815 270.624,99.4815 271.5,109.5C 270.207,108.158 269.374,106.491 269,104.5C 267.281,97.5731 265.948,90.5731 265,83.5C 263.855,79.2061 261.688,75.5394 258.5,72.5C 259.815,70.6841 261.315,69.0175 263,67.5C 264.735,60.6809 266.568,54.0142 268.5,47.5 Z"/></g>
<g><path style="opacity:1" fill="#5c5376" d="M 174.5,79.5 C 173.522,91.0861 173.189,102.753 173.5,114.5C 172.834,108.843 172.501,103.01 172.5,97C 172.504,90.793 173.171,84.9597 174.5,79.5 Z"/></g>
<g><path style="opacity:1" fill="#393360" d="M 430.5,92.5 C 431.285,94.3736 431.952,96.3736 432.5,98.5C 431.833,98.5 431.5,98.8333 431.5,99.5C 427.402,92.141 423.402,84.641 419.5,77C 418.833,76.3333 418.167,76.3333 417.5,77C 416.023,79.4449 414.19,81.6116 412,83.5C 411.185,98.2412 411.351,112.908 412.5,127.5C 411.069,127.119 410.236,126.119 410,124.5C 409.502,121.518 409.335,118.518 409.5,115.5C 409.5,114.167 409.5,112.833 409.5,111.5C 410.33,102.009 410.83,92.342 411,82.5C 412.52,79.4545 414.52,76.7879 417,74.5C 419.35,75.5042 421.684,76.5042 424,77.5C 424.667,80.1667 425.333,82.8333 426,85.5C 426.333,85.1667 426.667,84.8333 427,84.5C 427.322,87.6663 428.489,90.333 430.5,92.5 Z"/></g>
<g><path style="opacity:1" fill="#312e6c" d="M 447.5,73.5 C 452.847,82.8654 458.181,92.1987 463.5,101.5C 466.897,108.626 470.563,115.626 474.5,122.5C 473.85,122.804 473.183,123.137 472.5,123.5C 471.502,121.51 470.502,119.51 469.5,117.5C 468.675,116.614 467.675,116.281 466.5,116.5C 467.665,109.934 464.998,107.101 458.5,108C 455.532,110.178 455.865,111.344 459.5,111.5C 459.477,113.927 458.977,116.26 458,118.5C 456.644,119.38 455.144,119.714 453.5,119.5C 453.813,116.753 453.48,114.086 452.5,111.5C 448.966,109.13 445.966,106.296 443.5,103C 444.032,100.98 445.365,100.147 447.5,100.5C 447.1,103.761 448.267,104.428 451,102.5C 452.895,102.615 454.562,103.282 456,104.5C 457.205,103.929 458.372,103.262 459.5,102.5C 457.708,99.3663 456.374,96.0329 455.5,92.5C 453.866,92.032 452.7,91.032 452,89.5C 451.667,89.8333 451.333,90.1667 451,90.5C 450.667,88.5 450.333,86.5 450,84.5C 443.924,83.5236 437.758,83.1903 431.5,83.5C 431.5,80.1667 431.5,76.8333 431.5,73.5C 429.712,73.2148 428.045,73.5481 426.5,74.5C 426.877,79.0128 428.21,83.1794 430.5,87C 429.327,88.8261 429.327,90.6595 430.5,92.5C 428.489,90.333 427.322,87.6663 427,84.5C 426.667,84.8333 426.333,85.1667 426,85.5C 425.333,82.8333 424.667,80.1667 424,77.5C 421.684,76.5042 419.35,75.5042 417,74.5C 414.52,76.7879 412.52,79.4545 411,82.5C 410.83,92.342 410.33,102.009 409.5,111.5C 409.666,103.16 409.5,94.8267 409,86.5C 408.333,87.8333 407.667,87.8333 407,86.5C 406.346,82.533 407.179,78.8664 409.5,75.5C 412.054,76.5271 414.054,75.6938 415.5,73C 418.226,72.8184 420.893,72.3184 423.5,71.5C 422.754,70.2638 422.421,68.9305 422.5,67.5C 425.518,67.3354 428.518,67.502 431.5,68C 433.358,71.238 434.692,74.738 435.5,78.5C 439.445,79.4909 443.445,79.8242 447.5,79.5C 447.5,77.5 447.5,75.5 447.5,73.5 Z"/></g>
<g><path style="opacity:1" fill="#353154" d="M 208.5,85.5 C 209.827,89.951 210.494,94.7843 210.5,100C 210.333,104.833 210.167,109.667 210,114.5C 209.617,115.056 209.117,115.389 208.5,115.5C 208.5,105.5 208.5,95.5 208.5,85.5 Z"/></g>
<g><path style="opacity:1" fill="#ddd2e6" d="M 544.5,56.5 C 545.8,60.0007 546.966,63.6674 548,67.5C 549.444,71.4109 551.611,74.7442 554.5,77.5C 557.548,81.8736 561.548,85.207 566.5,87.5C 572.739,90.3218 579.405,91.6551 586.5,91.5C 592.719,91.9275 598.386,90.5941 603.5,87.5C 604.167,87.5 604.833,87.5 605.5,87.5C 606.093,96.6626 605.26,105.663 603,114.5C 596.845,123.651 588.345,126.818 577.5,124C 573.847,123.095 570.514,121.595 567.5,119.5C 562.504,113.837 561.504,107.503 564.5,100.5C 562.979,99.0627 561.145,98.396 559,98.5C 556.992,98.3068 555.492,98.9735 554.5,100.5C 552.827,101.343 551.66,102.676 551,104.5C 550.558,109.403 549.392,114.07 547.5,118.5C 548.642,124.858 549.642,131.191 550.5,137.5C 549.312,138.684 548.145,138.684 547,137.5C 547.604,134.157 547.437,130.823 546.5,127.5C 546.314,125.42 545.314,123.92 543.5,123C 545.23,115.373 547.397,107.873 550,100.5C 555.415,94.6565 561.415,93.9899 568,98.5C 567.109,101.511 566.276,104.677 565.5,108C 566.319,115.157 570.319,119.49 577.5,121C 586.436,123.349 593.936,121.182 600,114.5C 602.089,107.326 602.922,99.993 602.5,92.5C 586.611,96.4445 571.611,94.2778 557.5,86C 548.194,78.2422 543.86,68.4088 544.5,56.5 Z"/></g>
<g><path style="opacity:1" fill="#2e2c71" d="M 474.5,122.5 C 476.522,124.531 478.189,126.865 479.5,129.5C 479.5,130.5 479.5,131.5 479.5,132.5C 481.924,132.192 484.257,132.526 486.5,133.5C 484.513,135.556 482.013,136.556 479,136.5C 473.492,133.974 467.992,133.974 462.5,136.5C 454.56,133.982 446.894,133.982 439.5,136.5C 437.5,136 435.5,135.5 433.5,135C 436.373,132.908 439.707,131.908 443.5,132C 444.684,130.855 444.684,129.688 443.5,128.5C 444.649,128.209 445.316,127.376 445.5,126C 443.842,120.378 443.009,114.545 443,108.5C 441.556,106.845 439.722,106.178 437.5,106.5C 437.246,103.986 436.413,101.652 435,99.5C 434.329,98.7476 433.496,98.4142 432.5,98.5C 431.952,96.3736 431.285,94.3736 430.5,92.5C 429.327,90.6595 429.327,88.8261 430.5,87C 428.21,83.1794 426.877,79.0128 426.5,74.5C 428.045,73.5481 429.712,73.2148 431.5,73.5C 431.5,76.8333 431.5,80.1667 431.5,83.5C 437.758,83.1903 443.924,83.5236 450,84.5C 450.333,86.5 450.667,88.5 451,90.5C 451.333,90.1667 451.667,89.8333 452,89.5C 452.7,91.032 453.866,92.032 455.5,92.5C 456.374,96.0329 457.708,99.3663 459.5,102.5C 458.372,103.262 457.205,103.929 456,104.5C 454.562,103.282 452.895,102.615 451,102.5C 448.267,104.428 447.1,103.761 447.5,100.5C 445.365,100.147 444.032,100.98 443.5,103C 445.966,106.296 448.966,109.13 452.5,111.5C 453.48,114.086 453.813,116.753 453.5,119.5C 455.144,119.714 456.644,119.38 458,118.5C 458.977,116.26 459.477,113.927 459.5,111.5C 455.865,111.344 455.532,110.178 458.5,108C 464.998,107.101 467.665,109.934 466.5,116.5C 467.675,116.281 468.675,116.614 469.5,117.5C 470.502,119.51 471.502,121.51 472.5,123.5C 473.183,123.137 473.85,122.804 474.5,122.5 Z"/></g>
<g><path style="opacity:1" fill="#343068" d="M 432.5,98.5 C 433.496,98.4142 434.329,98.7476 435,99.5C 436.413,101.652 437.246,103.986 437.5,106.5C 439.722,106.178 441.556,106.845 443,108.5C 443.009,114.545 443.842,120.378 445.5,126C 445.316,127.376 444.649,128.209 443.5,128.5C 443.657,127.127 443.49,125.793 443,124.5C 439.072,116.219 435.239,107.886 431.5,99.5C 431.5,98.8333 431.833,98.5 432.5,98.5 Z"/></g>
<g><path style="opacity:1" fill="#34306a" d="M 409.5,115.5 C 409.335,118.518 409.502,121.518 410,124.5C 410.236,126.119 411.069,127.119 412.5,127.5C 413.429,128.315 414.429,129.148 415.5,130C 418.817,130.498 422.15,130.665 425.5,130.5C 425.625,133.608 424.292,135.608 421.5,136.5C 408.833,136.5 396.167,136.5 383.5,136.5C 384.531,135.751 385.698,135.085 387,134.5C 398.102,134.238 409.269,134.571 420.5,135.5C 420.5,134.5 420.5,133.5 420.5,132.5C 417.813,132.664 415.146,132.497 412.5,132C 410.623,129.749 409.123,127.249 408,124.5C 407.147,126.125 406.147,126.458 405,125.5C 403.55,120.739 405.05,117.405 409.5,115.5 Z"/></g>
<g><path style="opacity:1" fill="#3b3562" d="M 554.5,100.5 C 554.844,104.966 553.677,108.966 551,112.5C 550.333,119.833 550.333,127.167 551,134.5C 551.333,134.167 551.667,133.833 552,133.5C 554.037,135.706 556.203,137.706 558.5,139.5C 555.579,139.717 552.913,139.051 550.5,137.5C 549.642,131.191 548.642,124.858 547.5,118.5C 549.392,114.07 550.558,109.403 551,104.5C 551.66,102.676 552.827,101.343 554.5,100.5 Z"/></g>
<g><path style="opacity:1" fill="#333262" d="M 303.5,68.5 C 305.487,69.1642 307.154,70.3308 308.5,72C 304.806,74.6867 302.306,78.1867 301,82.5C 300.333,92.1667 300.333,101.833 301,111.5C 302.007,118.638 305.507,123.971 311.5,127.5C 308.692,127.307 306.025,126.64 303.5,125.5C 302.882,122.602 301.715,119.935 300,117.5C 299.091,103.838 298.758,90.1715 299,76.5C 300.356,75.6198 301.856,75.2865 303.5,75.5C 303.5,73.1667 303.5,70.8333 303.5,68.5 Z"/></g>
<g><path style="opacity:1" fill="#2e2b73" d="M 408.5,68.5 C 409.117,68.3893 409.617,68.056 410,67.5C 410.29,69.0441 410.956,70.3774 412,71.5C 412.317,69.6992 412.984,69.3659 414,70.5C 415.786,68.9007 417.953,68.0674 420.5,68C 421.244,66.1852 421.911,64.3519 422.5,62.5C 423.871,60.8304 425.371,60.1637 427,60.5C 428.508,62.8384 430.675,63.8384 433.5,63.5C 433.739,61.5328 433.406,59.6995 432.5,58C 433,57.5 433.5,57 434,56.5C 435.92,58.7259 437.753,61.0592 439.5,63.5C 439.616,68.9431 442.283,72.2764 447.5,73.5C 447.5,75.5 447.5,77.5 447.5,79.5C 443.445,79.8242 439.445,79.4909 435.5,78.5C 434.692,74.738 433.358,71.238 431.5,68C 428.518,67.502 425.518,67.3354 422.5,67.5C 422.421,68.9305 422.754,70.2638 423.5,71.5C 420.893,72.3184 418.226,72.8184 415.5,73C 414.054,75.6938 412.054,76.5271 409.5,75.5C 407.179,78.8664 406.346,82.533 407,86.5C 407.667,87.8333 408.333,87.8333 409,86.5C 409.5,94.8267 409.666,103.16 409.5,111.5C 409.5,112.833 409.5,114.167 409.5,115.5C 405.05,117.405 403.55,120.739 405,125.5C 406.147,126.458 407.147,126.125 408,124.5C 409.123,127.249 410.623,129.749 412.5,132C 415.146,132.497 417.813,132.664 420.5,132.5C 420.5,133.5 420.5,134.5 420.5,135.5C 409.269,134.571 398.102,134.238 387,134.5C 385.698,135.085 384.531,135.751 383.5,136.5C 383.5,136.833 383.5,137.167 383.5,137.5C 381.099,136.951 378.765,136.118 376.5,135C 376.833,134.667 377.167,134.333 377.5,134C 380.229,133.995 382.229,132.829 383.5,130.5C 389.807,129.669 396.141,129.169 402.5,129C 402.833,128.667 403.167,128.333 403.5,128C 402.552,127.517 401.552,127.351 400.5,127.5C 402.306,114.764 403.306,101.764 403.5,88.5C 403.333,82.8333 403.167,77.1667 403,71.5C 401.492,69.9826 400.658,68.1493 400.5,66C 401.394,57.1901 402.061,48.3568 402.5,39.5C 400.506,31.6677 401.506,24.001 405.5,16.5C 409.228,15.3185 412.895,13.9852 416.5,12.5C 417.672,12.9186 418.672,13.5853 419.5,14.5C 412.458,14.9197 408.624,18.5864 408,25.5C 405.235,40.6561 404.235,55.9894 405,71.5C 406.518,70.8366 407.685,69.8366 408.5,68.5 Z"/></g>
<g><path style="opacity:1" fill="#dcd2e5" d="M 84.5,103.5 C 84.1667,105.5 83.8333,107.5 83.5,109.5C 82.0525,115.73 79.0525,121.064 74.5,125.5C 73.3951,126.6 72.0618,127.267 70.5,127.5C 69.7375,126.732 68.7375,126.232 67.5,126C 69.6641,125.086 71.6641,123.919 73.5,122.5C 79.1018,115.54 82.2685,107.54 83,98.5C 83.1981,100.382 83.6981,102.048 84.5,103.5 Z"/></g>
<g><path style="opacity:1" fill="#302d6f" d="M 567.5,119.5 C 567.5,120.833 567.5,122.167 567.5,123.5C 573.203,124.882 579.037,125.549 585,125.5C 589.026,125.411 593.026,125.078 597,124.5C 598.662,124.388 599.829,125.054 600.5,126.5C 603.785,127.324 607.118,127.824 610.5,128C 596.596,132.837 582.429,133.67 568,130.5C 565.992,130.307 564.492,130.974 563.5,132.5C 563.5,134.833 563.5,137.167 563.5,139.5C 561.833,139.5 560.167,139.5 558.5,139.5C 556.203,137.706 554.037,135.706 552,133.5C 551.667,133.833 551.333,134.167 551,134.5C 550.333,127.167 550.333,119.833 551,112.5C 553.677,108.966 554.844,104.966 554.5,100.5C 555.492,98.9735 556.992,98.3068 559,98.5C 561.145,98.396 562.979,99.0627 564.5,100.5C 561.504,107.503 562.504,113.837 567.5,119.5 Z"/></g>
<g><path style="opacity:1" fill="#353169" d="M 605.5,87.5 C 606.117,87.6107 606.617,87.944 607,88.5C 607.167,93.9744 607.334,99.3077 607.5,104.5C 607.216,107.899 606.216,111.065 604.5,114C 604.833,114.333 605.167,114.667 605.5,115C 602.383,116.72 601.717,119.22 603.5,122.5C 607.795,123.661 612.129,123.828 616.5,123C 616.167,122.667 615.833,122.333 615.5,122C 617.574,119.698 618.908,117.032 619.5,114C 621.108,113.342 622.275,113.842 623,115.5C 624.333,114.167 625.667,112.833 627,111.5C 627.383,112.056 627.883,112.389 628.5,112.5C 618.574,128.385 604.074,136.051 585,135.5C 577.713,135.234 570.546,134.234 563.5,132.5C 564.492,130.974 565.992,130.307 568,130.5C 582.429,133.67 596.596,132.837 610.5,128C 607.118,127.824 603.785,127.324 600.5,126.5C 599.829,125.054 598.662,124.388 597,124.5C 593.026,125.078 589.026,125.411 585,125.5C 579.037,125.549 573.203,124.882 567.5,123.5C 567.5,122.167 567.5,120.833 567.5,119.5C 570.514,121.595 573.847,123.095 577.5,124C 588.345,126.818 596.845,123.651 603,114.5C 605.26,105.663 606.093,96.6626 605.5,87.5 Z"/></g>
<g><path style="opacity:1" fill="#ddd3e7" d="M 488.5,129.5 C 485.604,130.775 482.604,130.775 479.5,129.5C 478.189,126.865 476.522,124.531 474.5,122.5C 470.563,115.626 466.897,108.626 463.5,101.5C 464.88,100.294 466.047,100.627 467,102.5C 471.069,111.209 475.902,119.375 481.5,127C 483.298,128.505 485.132,128.672 487,127.5C 487.278,128.416 487.778,129.082 488.5,129.5 Z"/></g>
<g><path style="opacity:1" fill="#3b3565" d="M 151.5,120.5 C 154.588,122.375 157.922,123.708 161.5,124.5C 162.11,129.11 164.776,131.777 169.5,132.5C 170.705,133.577 171.372,134.91 171.5,136.5C 162.921,133.545 156.254,128.212 151.5,120.5 Z"/></g>
<g><path style="opacity:1" fill="#393365" d="M 351.5,123.5 C 351.337,121.143 351.503,118.81 352,116.5C 354.589,111.338 354.755,106.004 352.5,100.5C 350.958,99.2532 349.458,99.2532 348,100.5C 348.235,108.738 346.401,116.404 342.5,123.5C 341.088,124.806 339.421,125.64 337.5,126C 337.833,126.333 338.167,126.667 338.5,127C 329.662,133.267 320.329,133.934 310.5,129C 311.056,128.617 311.389,128.117 311.5,127.5C 322.56,131.537 332.393,129.537 341,121.5C 345.61,114.508 346.443,107.175 343.5,99.5C 351.678,95.6414 356.345,98.3081 357.5,107.5C 357.245,113.612 355.245,118.945 351.5,123.5 Z"/></g>
<g><path style="opacity:1" fill="#363266" d="M 20.5,79.5 C 21.7498,79.5774 22.5831,80.244 23,81.5C 23.2671,93.0135 23.7671,104.513 24.5,116C 22.6477,120.587 21.6477,125.42 21.5,130.5C 18.1869,131.045 14.8536,131.545 11.5,132C 11.0426,132.414 10.7093,132.914 10.5,133.5C 11.5,134.333 12.5,135.167 13.5,136C 17.5237,136.609 21.5237,136.442 25.5,135.5C 32.7811,137.705 40.1145,137.705 47.5,135.5C 48.9122,136.806 50.5789,137.64 52.5,138C 58.5,138.667 64.5,138.667 70.5,138C 72.6239,137.042 74.6239,135.875 76.5,134.5C 80.2046,135.108 83.8712,134.608 87.5,133C 89.0206,129.983 88.0206,128.15 84.5,127.5C 84.6667,127.167 84.8333,126.833 85,126.5C 87,127.167 89,127.833 91,128.5C 91.3333,128.167 91.6667,127.833 92,127.5C 92.6891,128.357 93.5224,129.023 94.5,129.5C 99.718,124.024 103.551,117.69 106,110.5C 107.444,108.845 109.278,108.178 111.5,108.5C 110.39,113.312 108.223,117.646 105,121.5C 88.1629,138.587 67.9962,144.254 44.5,138.5C 38.1883,140.126 32.0217,139.792 26,137.5C 19.884,140.091 13.7174,140.091 7.5,137.5C 6.06694,135.442 5.40027,133.108 5.5,130.5C 9.04185,130.813 12.3752,130.479 15.5,129.5C 17.7079,128.977 19.2079,127.644 20,125.5C 20.4999,110.17 20.6666,94.837 20.5,79.5 Z"/></g>
<g><path style="opacity:1" fill="#353069" d="M 347.5,128.5 C 346.375,130.129 345.041,131.629 343.5,133C 325.094,142.964 306.761,142.964 288.5,133C 281.157,127.157 275.49,119.99 271.5,111.5C 272.75,111.577 273.583,112.244 274,113.5C 274.333,113.167 274.667,112.833 275,112.5C 275.813,115.821 277.313,118.821 279.5,121.5C 282.713,121.722 284.546,123.388 285,126.5C 285.414,126.043 285.914,125.709 286.5,125.5C 287.167,115.5 287.833,105.5 288.5,95.5C 289.332,103.479 289.832,111.479 290,119.5C 291.136,122.096 291.969,124.763 292.5,127.5C 290.712,127.215 289.045,127.548 287.5,128.5C 290.212,129.228 292.879,130.061 295.5,131C 297.933,135.889 301.433,136.722 306,133.5C 307.971,133.468 309.471,134.302 310.5,136C 310.167,136.333 309.833,136.667 309.5,137C 316.167,139 322.833,139 329.5,137C 333.589,135.271 337.589,133.438 341.5,131.5C 342.773,128.479 344.773,127.479 347.5,128.5 Z"/></g>
<g><path style="opacity:1" fill="#353260" d="M 369.5,136.5 C 372.585,137.393 375.752,138.06 379,138.5C 380.707,138.492 382.207,138.158 383.5,137.5C 383.5,137.167 383.5,136.833 383.5,136.5C 396.167,136.5 408.833,136.5 421.5,136.5C 421.5,137.167 421.5,137.833 421.5,138.5C 416.209,140.054 411.042,139.721 406,137.5C 399.973,140.105 393.973,140.105 388,137.5C 381.52,140.437 375.353,140.104 369.5,136.5 Z"/></g>
<g><path style="opacity:1" fill="#363265" d="M 443.5,128.5 C 444.684,129.688 444.684,130.855 443.5,132C 439.707,131.908 436.373,132.908 433.5,135C 435.5,135.5 437.5,136 439.5,136.5C 446.894,133.982 454.56,133.982 462.5,136.5C 467.992,133.974 473.492,133.974 479,136.5C 482.013,136.556 484.513,135.556 486.5,133.5C 484.257,132.526 481.924,132.192 479.5,132.5C 479.5,131.5 479.5,130.5 479.5,129.5C 482.604,130.775 485.604,130.775 488.5,129.5C 489.167,129.5 489.5,129.833 489.5,130.5C 489.927,135.576 487.593,138.409 482.5,139C 477.753,139.994 473.253,139.494 469,137.5C 462.751,140.09 456.584,140.09 450.5,137.5C 448.962,137.453 447.962,138.12 447.5,139.5C 446.5,139.5 445.5,139.5 444.5,139.5C 441.022,139.816 437.688,139.316 434.5,138C 431.537,135.729 430.87,132.896 432.5,129.5C 436.349,130.949 440.016,130.616 443.5,128.5 Z"/></g>
<g><path style="opacity:1" fill="#393363" d="M 239.5,101.5 C 236.498,114.341 229.831,124.841 219.5,133C 203.867,141.44 187.867,142.607 171.5,136.5C 180.748,138.346 190.081,138.846 199.5,138C 204.155,138.012 208.155,136.512 211.5,133.5C 214.267,130.147 217.934,128.647 222.5,129C 223.691,126.422 225.357,124.255 227.5,122.5C 228.348,119.509 230.181,117.175 233,115.5C 233.719,109.45 235.386,104.45 238,100.5C 238.383,101.056 238.883,101.389 239.5,101.5 Z"/></g>
<g><path style="opacity:1" fill="#d7cde1" d="M 447.5,139.5 C 447.962,138.12 448.962,137.453 450.5,137.5C 456.584,140.09 462.751,140.09 469,137.5C 473.253,139.494 477.753,139.994 482.5,139C 487.593,138.409 489.927,135.576 489.5,130.5C 490.29,131.609 490.79,132.942 491,134.5C 491.333,132.833 491.667,131.167 492,129.5C 493.277,136.443 490.443,140.61 483.5,142C 478.667,142.883 474,142.383 469.5,140.5C 462.04,143.221 454.706,142.888 447.5,139.5 Z"/></g>
<g><path style="opacity:1" fill="#ddd2e4" d="M 367.5,134.5 C 368.5,134.833 369.167,135.5 369.5,136.5C 375.353,140.104 381.52,140.437 388,137.5C 393.973,140.105 399.973,140.105 406,137.5C 411.042,139.721 416.209,140.054 421.5,138.5C 421.918,139.222 422.584,139.722 423.5,140C 420.963,141.838 418.129,142.671 415,142.5C 408.835,141.203 402.669,141.203 396.5,142.5C 393.622,142.614 390.956,141.948 388.5,140.5C 382.066,142.946 375.566,142.946 369,140.5C 367.351,139.214 366.185,137.547 365.5,135.5C 366.2,135.213 366.867,134.88 367.5,134.5 Z"/></g>
</svg>
